<mxfile host="Electron" modified="2024-02-01T03:24:56.661Z" agent="Mozilla/5.0 (Windows NT 10.0; Win64; x64) AppleWebKit/537.36 (KHTML, like Gecko) draw.io/22.1.11 Chrome/114.0.5735.289 Electron/25.9.8 Safari/537.36" etag="_9yuVyKAOSr8QC4IbdEu" version="22.1.11" type="device">
  <diagram name="Page-1" id="i0-9lZBwk46ebfINHTn6">
    <mxGraphModel dx="2333" dy="1380" grid="1" gridSize="10" guides="1" tooltips="1" connect="1" arrows="1" fold="1" page="1" pageScale="1" pageWidth="2339" pageHeight="3300" math="0" shadow="0">
      <root>
        <mxCell id="0" />
        <mxCell id="1" parent="0" />
        <mxCell id="bFZ082iqQ71JPYvCp7bj-39" style="edgeStyle=orthogonalEdgeStyle;rounded=0;orthogonalLoop=1;jettySize=auto;html=1;startArrow=classic;startFill=1;endArrow=none;endFill=0;" edge="1" parent="1" source="bFZ082iqQ71JPYvCp7bj-1">
          <mxGeometry relative="1" as="geometry">
            <mxPoint x="507" y="310" as="targetPoint" />
          </mxGeometry>
        </mxCell>
        <mxCell id="bFZ082iqQ71JPYvCp7bj-61" value="&lt;font style=&quot;font-size: 15px;&quot;&gt;S&lt;/font&gt;" style="edgeLabel;html=1;align=center;verticalAlign=middle;resizable=0;points=[];fontStyle=1" vertex="1" connectable="0" parent="bFZ082iqQ71JPYvCp7bj-39">
          <mxGeometry x="0.0581" y="-1" relative="1" as="geometry">
            <mxPoint x="-2" as="offset" />
          </mxGeometry>
        </mxCell>
        <mxCell id="bFZ082iqQ71JPYvCp7bj-40" style="rounded=0;orthogonalLoop=1;jettySize=auto;html=1;exitX=0;exitY=0;exitDx=0;exitDy=0;startArrow=classic;startFill=1;endArrow=none;endFill=0;" edge="1" parent="1" source="bFZ082iqQ71JPYvCp7bj-1">
          <mxGeometry relative="1" as="geometry">
            <mxPoint x="497" y="220" as="targetPoint" />
          </mxGeometry>
        </mxCell>
        <mxCell id="bFZ082iqQ71JPYvCp7bj-59" value="&lt;b style=&quot;font-size: 15px;&quot;&gt;&lt;font style=&quot;font-size: 15px;&quot;&gt;D2&lt;/font&gt;&lt;/b&gt;" style="edgeLabel;html=1;align=center;verticalAlign=middle;resizable=0;points=[];fontSize=15;" vertex="1" connectable="0" parent="bFZ082iqQ71JPYvCp7bj-40">
          <mxGeometry x="-0.0533" y="1" relative="1" as="geometry">
            <mxPoint x="-4" y="-5" as="offset" />
          </mxGeometry>
        </mxCell>
        <mxCell id="bFZ082iqQ71JPYvCp7bj-44" style="edgeStyle=orthogonalEdgeStyle;rounded=0;orthogonalLoop=1;jettySize=auto;html=1;startArrow=classic;startFill=1;endArrow=none;endFill=0;" edge="1" parent="1" source="bFZ082iqQ71JPYvCp7bj-1" target="bFZ082iqQ71JPYvCp7bj-163">
          <mxGeometry relative="1" as="geometry">
            <mxPoint x="587" y="220" as="targetPoint" />
          </mxGeometry>
        </mxCell>
        <mxCell id="bFZ082iqQ71JPYvCp7bj-45" style="edgeStyle=orthogonalEdgeStyle;rounded=0;orthogonalLoop=1;jettySize=auto;html=1;startArrow=classic;startFill=1;endArrow=none;endFill=0;" edge="1" parent="1">
          <mxGeometry relative="1" as="geometry">
            <mxPoint x="647" y="220" as="targetPoint" />
            <mxPoint x="627" y="287" as="sourcePoint" />
          </mxGeometry>
        </mxCell>
        <mxCell id="bFZ082iqQ71JPYvCp7bj-46" value="Div_nMul" style="edgeLabel;html=1;align=center;verticalAlign=middle;resizable=0;points=[];rotation=-90;fontSize=12;fontStyle=1" vertex="1" connectable="0" parent="bFZ082iqQ71JPYvCp7bj-45">
          <mxGeometry x="0.2413" relative="1" as="geometry">
            <mxPoint as="offset" />
          </mxGeometry>
        </mxCell>
        <mxCell id="bFZ082iqQ71JPYvCp7bj-41" style="edgeStyle=orthogonalEdgeStyle;rounded=0;orthogonalLoop=1;jettySize=auto;html=1;startArrow=classic;startFill=1;endArrow=none;endFill=0;" edge="1" parent="1">
          <mxGeometry relative="1" as="geometry">
            <mxPoint x="507" y="290" as="targetPoint" />
            <mxPoint x="547" y="290" as="sourcePoint" />
          </mxGeometry>
        </mxCell>
        <mxCell id="bFZ082iqQ71JPYvCp7bj-60" value="&lt;font style=&quot;font-size: 15px;&quot;&gt;B2&lt;/font&gt;" style="edgeLabel;html=1;align=center;verticalAlign=middle;resizable=0;points=[];fontStyle=1" vertex="1" connectable="0" parent="bFZ082iqQ71JPYvCp7bj-41">
          <mxGeometry x="-0.0593" y="-1" relative="1" as="geometry">
            <mxPoint x="-6" as="offset" />
          </mxGeometry>
        </mxCell>
        <mxCell id="bFZ082iqQ71JPYvCp7bj-79" style="edgeStyle=orthogonalEdgeStyle;rounded=0;orthogonalLoop=1;jettySize=auto;html=1;startArrow=classic;startFill=1;endArrow=none;endFill=0;" edge="1" parent="1" source="bFZ082iqQ71JPYvCp7bj-87">
          <mxGeometry relative="1" as="geometry">
            <mxPoint x="687" y="310" as="targetPoint" />
          </mxGeometry>
        </mxCell>
        <mxCell id="bFZ082iqQ71JPYvCp7bj-80" value="&lt;font style=&quot;font-size: 15px;&quot;&gt;S&lt;/font&gt;" style="edgeLabel;html=1;align=center;verticalAlign=middle;resizable=0;points=[];fontStyle=1" vertex="1" connectable="0" parent="bFZ082iqQ71JPYvCp7bj-79">
          <mxGeometry x="0.0581" y="-1" relative="1" as="geometry">
            <mxPoint x="-2" as="offset" />
          </mxGeometry>
        </mxCell>
        <mxCell id="bFZ082iqQ71JPYvCp7bj-81" style="rounded=0;orthogonalLoop=1;jettySize=auto;html=1;exitX=0;exitY=0;exitDx=0;exitDy=0;startArrow=classic;startFill=1;endArrow=none;endFill=0;" edge="1" parent="1" source="bFZ082iqQ71JPYvCp7bj-87">
          <mxGeometry relative="1" as="geometry">
            <mxPoint x="677" y="220" as="targetPoint" />
          </mxGeometry>
        </mxCell>
        <mxCell id="bFZ082iqQ71JPYvCp7bj-82" value="&lt;b style=&quot;font-size: 15px;&quot;&gt;&lt;font style=&quot;font-size: 15px;&quot;&gt;D1&lt;/font&gt;&lt;/b&gt;" style="edgeLabel;html=1;align=center;verticalAlign=middle;resizable=0;points=[];fontSize=15;" vertex="1" connectable="0" parent="bFZ082iqQ71JPYvCp7bj-81">
          <mxGeometry x="-0.0533" y="1" relative="1" as="geometry">
            <mxPoint x="-4" y="-5" as="offset" />
          </mxGeometry>
        </mxCell>
        <mxCell id="bFZ082iqQ71JPYvCp7bj-83" style="edgeStyle=orthogonalEdgeStyle;rounded=0;orthogonalLoop=1;jettySize=auto;html=1;startArrow=classic;startFill=1;endArrow=none;endFill=0;" edge="1" parent="1" source="bFZ082iqQ71JPYvCp7bj-87">
          <mxGeometry relative="1" as="geometry">
            <mxPoint x="767" y="220" as="targetPoint" />
          </mxGeometry>
        </mxCell>
        <mxCell id="bFZ082iqQ71JPYvCp7bj-84" style="edgeStyle=orthogonalEdgeStyle;rounded=0;orthogonalLoop=1;jettySize=auto;html=1;startArrow=classic;startFill=1;endArrow=none;endFill=0;" edge="1" parent="1">
          <mxGeometry relative="1" as="geometry">
            <mxPoint x="827" y="220" as="targetPoint" />
            <mxPoint x="807" y="287" as="sourcePoint" />
          </mxGeometry>
        </mxCell>
        <mxCell id="bFZ082iqQ71JPYvCp7bj-85" value="Div_nMul" style="edgeLabel;html=1;align=center;verticalAlign=middle;resizable=0;points=[];rotation=-90;fontSize=12;fontStyle=1" vertex="1" connectable="0" parent="bFZ082iqQ71JPYvCp7bj-84">
          <mxGeometry x="0.2413" relative="1" as="geometry">
            <mxPoint as="offset" />
          </mxGeometry>
        </mxCell>
        <mxCell id="bFZ082iqQ71JPYvCp7bj-90" style="edgeStyle=orthogonalEdgeStyle;rounded=0;orthogonalLoop=1;jettySize=auto;html=1;entryX=1;entryY=0.75;entryDx=0;entryDy=0;exitX=0;exitY=0.75;exitDx=0;exitDy=0;" edge="1" parent="1">
          <mxGeometry relative="1" as="geometry">
            <mxPoint x="727" y="335" as="sourcePoint" />
            <mxPoint x="627" y="335" as="targetPoint" />
          </mxGeometry>
        </mxCell>
        <mxCell id="bFZ082iqQ71JPYvCp7bj-88" style="edgeStyle=orthogonalEdgeStyle;rounded=0;orthogonalLoop=1;jettySize=auto;html=1;startArrow=classic;startFill=1;endArrow=none;endFill=0;" edge="1" parent="1">
          <mxGeometry relative="1" as="geometry">
            <mxPoint x="687" y="290" as="targetPoint" />
            <mxPoint x="727" y="290" as="sourcePoint" />
          </mxGeometry>
        </mxCell>
        <mxCell id="bFZ082iqQ71JPYvCp7bj-89" value="&lt;font style=&quot;font-size: 15px;&quot;&gt;B2&lt;/font&gt;" style="edgeLabel;html=1;align=center;verticalAlign=middle;resizable=0;points=[];fontStyle=1" vertex="1" connectable="0" parent="bFZ082iqQ71JPYvCp7bj-88">
          <mxGeometry x="-0.0593" y="-1" relative="1" as="geometry">
            <mxPoint x="-6" as="offset" />
          </mxGeometry>
        </mxCell>
        <mxCell id="bFZ082iqQ71JPYvCp7bj-113" value="" style="group" vertex="1" connectable="0" parent="1">
          <mxGeometry x="532" y="270" width="117" height="80" as="geometry" />
        </mxCell>
        <mxCell id="bFZ082iqQ71JPYvCp7bj-1" value="&lt;b&gt;&lt;font style=&quot;font-size: 19px;&quot;&gt;Cell 1&lt;/font&gt;&lt;/b&gt;" style="rounded=0;whiteSpace=wrap;html=1;strokeWidth=2;" vertex="1" parent="bFZ082iqQ71JPYvCp7bj-113">
          <mxGeometry x="15" width="80" height="80" as="geometry" />
        </mxCell>
        <mxCell id="bFZ082iqQ71JPYvCp7bj-112" value="&lt;font style=&quot;font-size: 8px;&quot;&gt;Cout&lt;/font&gt;" style="text;html=1;strokeColor=none;fillColor=none;align=center;verticalAlign=middle;whiteSpace=wrap;rounded=0;movable=1;resizable=1;rotatable=1;deletable=1;editable=1;locked=0;connectable=1;" vertex="1" parent="bFZ082iqQ71JPYvCp7bj-113">
          <mxGeometry x="15" y="60" width="35" height="13" as="geometry" />
        </mxCell>
        <mxCell id="bFZ082iqQ71JPYvCp7bj-114" value="&lt;font style=&quot;font-size: 8px;&quot;&gt;Cin&lt;/font&gt;" style="text;html=1;strokeColor=none;fillColor=none;align=center;verticalAlign=middle;whiteSpace=wrap;rounded=0;movable=0;resizable=0;rotatable=0;deletable=0;editable=0;locked=1;connectable=0;" vertex="1" parent="bFZ082iqQ71JPYvCp7bj-113">
          <mxGeometry x="65" y="50" width="35" height="30" as="geometry" />
        </mxCell>
        <mxCell id="bFZ082iqQ71JPYvCp7bj-117" value="" style="group" vertex="1" connectable="0" parent="1">
          <mxGeometry x="709" y="270" width="117" height="80" as="geometry" />
        </mxCell>
        <mxCell id="bFZ082iqQ71JPYvCp7bj-87" value="&lt;b&gt;&lt;font style=&quot;font-size: 19px;&quot;&gt;Cell 1&lt;/font&gt;&lt;/b&gt;" style="rounded=0;whiteSpace=wrap;html=1;strokeWidth=2;" vertex="1" parent="bFZ082iqQ71JPYvCp7bj-117">
          <mxGeometry x="18" width="80" height="80" as="geometry" />
        </mxCell>
        <mxCell id="bFZ082iqQ71JPYvCp7bj-92" value="&lt;font style=&quot;font-size: 8px;&quot;&gt;Cout&lt;/font&gt;" style="text;html=1;strokeColor=none;fillColor=none;align=center;verticalAlign=middle;whiteSpace=wrap;rounded=0;" vertex="1" parent="bFZ082iqQ71JPYvCp7bj-117">
          <mxGeometry y="48" width="60" height="30" as="geometry" />
        </mxCell>
        <mxCell id="bFZ082iqQ71JPYvCp7bj-115" value="&lt;font style=&quot;font-size: 8px;&quot;&gt;Cin&lt;/font&gt;" style="text;html=1;strokeColor=none;fillColor=none;align=center;verticalAlign=middle;whiteSpace=wrap;rounded=0;" vertex="1" parent="bFZ082iqQ71JPYvCp7bj-117">
          <mxGeometry x="57" y="48" width="60" height="30" as="geometry" />
        </mxCell>
        <mxCell id="bFZ082iqQ71JPYvCp7bj-118" style="edgeStyle=orthogonalEdgeStyle;rounded=0;orthogonalLoop=1;jettySize=auto;html=1;startArrow=classic;startFill=1;endArrow=none;endFill=0;" edge="1" parent="1" source="bFZ082iqQ71JPYvCp7bj-130">
          <mxGeometry relative="1" as="geometry">
            <mxPoint x="867" y="310" as="targetPoint" />
          </mxGeometry>
        </mxCell>
        <mxCell id="bFZ082iqQ71JPYvCp7bj-119" value="&lt;font style=&quot;font-size: 15px;&quot;&gt;S&lt;/font&gt;" style="edgeLabel;html=1;align=center;verticalAlign=middle;resizable=0;points=[];fontStyle=1" vertex="1" connectable="0" parent="bFZ082iqQ71JPYvCp7bj-118">
          <mxGeometry x="0.0581" y="-1" relative="1" as="geometry">
            <mxPoint x="-2" as="offset" />
          </mxGeometry>
        </mxCell>
        <mxCell id="bFZ082iqQ71JPYvCp7bj-120" style="rounded=0;orthogonalLoop=1;jettySize=auto;html=1;exitX=0;exitY=0;exitDx=0;exitDy=0;startArrow=classic;startFill=1;endArrow=none;endFill=0;" edge="1" parent="1" source="bFZ082iqQ71JPYvCp7bj-130">
          <mxGeometry relative="1" as="geometry">
            <mxPoint x="857" y="220" as="targetPoint" />
          </mxGeometry>
        </mxCell>
        <mxCell id="bFZ082iqQ71JPYvCp7bj-121" value="&lt;b style=&quot;font-size: 15px;&quot;&gt;&lt;font style=&quot;font-size: 15px;&quot;&gt;D0&lt;/font&gt;&lt;/b&gt;" style="edgeLabel;html=1;align=center;verticalAlign=middle;resizable=0;points=[];fontSize=15;" vertex="1" connectable="0" parent="bFZ082iqQ71JPYvCp7bj-120">
          <mxGeometry x="-0.0533" y="1" relative="1" as="geometry">
            <mxPoint x="-4" y="-5" as="offset" />
          </mxGeometry>
        </mxCell>
        <mxCell id="bFZ082iqQ71JPYvCp7bj-122" style="edgeStyle=orthogonalEdgeStyle;rounded=0;orthogonalLoop=1;jettySize=auto;html=1;startArrow=classic;startFill=1;endArrow=none;endFill=0;exitX=0.5;exitY=0;exitDx=0;exitDy=0;" edge="1" parent="1" source="bFZ082iqQ71JPYvCp7bj-130">
          <mxGeometry relative="1" as="geometry">
            <mxPoint x="1650" y="70" as="targetPoint" />
            <Array as="points">
              <mxPoint x="947" y="240" />
              <mxPoint x="1650" y="240" />
              <mxPoint x="1650" y="70" />
            </Array>
          </mxGeometry>
        </mxCell>
        <mxCell id="bFZ082iqQ71JPYvCp7bj-126" style="edgeStyle=orthogonalEdgeStyle;rounded=0;orthogonalLoop=1;jettySize=auto;html=1;entryX=1;entryY=0.75;entryDx=0;entryDy=0;exitX=0;exitY=0.75;exitDx=0;exitDy=0;" edge="1" parent="1">
          <mxGeometry relative="1" as="geometry">
            <mxPoint x="907" y="335" as="sourcePoint" />
            <mxPoint x="807" y="335" as="targetPoint" />
          </mxGeometry>
        </mxCell>
        <mxCell id="bFZ082iqQ71JPYvCp7bj-127" style="edgeStyle=orthogonalEdgeStyle;rounded=0;orthogonalLoop=1;jettySize=auto;html=1;startArrow=classic;startFill=1;endArrow=none;endFill=0;" edge="1" parent="1">
          <mxGeometry relative="1" as="geometry">
            <mxPoint x="867" y="290" as="targetPoint" />
            <mxPoint x="907" y="290" as="sourcePoint" />
          </mxGeometry>
        </mxCell>
        <mxCell id="bFZ082iqQ71JPYvCp7bj-128" value="&lt;font style=&quot;font-size: 15px;&quot;&gt;B2&lt;/font&gt;" style="edgeLabel;html=1;align=center;verticalAlign=middle;resizable=0;points=[];fontStyle=1" vertex="1" connectable="0" parent="bFZ082iqQ71JPYvCp7bj-127">
          <mxGeometry x="-0.0593" y="-1" relative="1" as="geometry">
            <mxPoint x="-6" as="offset" />
          </mxGeometry>
        </mxCell>
        <mxCell id="bFZ082iqQ71JPYvCp7bj-163" value="&lt;b&gt;&lt;font style=&quot;font-size: 15px;&quot;&gt;&#39;0&#39;&lt;/font&gt;&lt;/b&gt;" style="text;html=1;strokeColor=none;fillColor=none;align=center;verticalAlign=middle;whiteSpace=wrap;rounded=0;" vertex="1" parent="1">
          <mxGeometry x="557" y="190" width="60" height="30" as="geometry" />
        </mxCell>
        <mxCell id="bFZ082iqQ71JPYvCp7bj-164" value="&lt;b&gt;&lt;font style=&quot;font-size: 15px;&quot;&gt;&#39;0&#39;&lt;/font&gt;&lt;/b&gt;" style="text;html=1;strokeColor=none;fillColor=none;align=center;verticalAlign=middle;whiteSpace=wrap;rounded=0;" vertex="1" parent="1">
          <mxGeometry x="737.5" y="190" width="60" height="30" as="geometry" />
        </mxCell>
        <mxCell id="bFZ082iqQ71JPYvCp7bj-166" value="&lt;b&gt;&lt;font style=&quot;font-size: 15px;&quot;&gt;A5&lt;/font&gt;&lt;/b&gt;" style="text;html=1;strokeColor=none;fillColor=none;align=center;verticalAlign=middle;whiteSpace=wrap;rounded=0;" vertex="1" parent="1">
          <mxGeometry x="930.5" y="210" width="40" height="30" as="geometry" />
        </mxCell>
        <mxCell id="bFZ082iqQ71JPYvCp7bj-172" style="edgeStyle=orthogonalEdgeStyle;rounded=0;orthogonalLoop=1;jettySize=auto;html=1;startArrow=classic;startFill=1;endArrow=none;endFill=0;" edge="1" parent="1">
          <mxGeometry relative="1" as="geometry">
            <mxPoint x="1047" y="289" as="targetPoint" />
            <mxPoint x="987" y="289" as="sourcePoint" />
          </mxGeometry>
        </mxCell>
        <mxCell id="bFZ082iqQ71JPYvCp7bj-173" value="Div_nMul" style="edgeLabel;html=1;align=center;verticalAlign=middle;resizable=0;points=[];" vertex="1" connectable="0" parent="bFZ082iqQ71JPYvCp7bj-172">
          <mxGeometry x="-0.1605" relative="1" as="geometry">
            <mxPoint x="15" as="offset" />
          </mxGeometry>
        </mxCell>
        <mxCell id="bFZ082iqQ71JPYvCp7bj-174" style="edgeStyle=orthogonalEdgeStyle;rounded=0;orthogonalLoop=1;jettySize=auto;html=1;startArrow=classic;startFill=1;endArrow=none;endFill=0;" edge="1" parent="1">
          <mxGeometry relative="1" as="geometry">
            <mxPoint x="1057" y="335" as="targetPoint" />
            <mxPoint x="987" y="335" as="sourcePoint" />
          </mxGeometry>
        </mxCell>
        <mxCell id="bFZ082iqQ71JPYvCp7bj-175" value="Div_nMul" style="edgeLabel;html=1;align=center;verticalAlign=middle;resizable=0;points=[];" vertex="1" connectable="0" parent="bFZ082iqQ71JPYvCp7bj-174">
          <mxGeometry x="0.2226" relative="1" as="geometry">
            <mxPoint as="offset" />
          </mxGeometry>
        </mxCell>
        <mxCell id="bFZ082iqQ71JPYvCp7bj-176" value="" style="group" vertex="1" connectable="0" parent="1">
          <mxGeometry x="889" y="270" width="117" height="80" as="geometry" />
        </mxCell>
        <mxCell id="bFZ082iqQ71JPYvCp7bj-130" value="&lt;b&gt;&lt;font style=&quot;font-size: 19px;&quot;&gt;Cell 2&lt;/font&gt;&lt;/b&gt;" style="rounded=0;whiteSpace=wrap;html=1;strokeWidth=2;" vertex="1" parent="bFZ082iqQ71JPYvCp7bj-176">
          <mxGeometry x="18" width="80" height="80" as="geometry" />
        </mxCell>
        <mxCell id="bFZ082iqQ71JPYvCp7bj-131" value="&lt;font style=&quot;font-size: 8px;&quot;&gt;Cout&lt;/font&gt;" style="text;html=1;strokeColor=none;fillColor=none;align=center;verticalAlign=middle;whiteSpace=wrap;rounded=0;" vertex="1" parent="bFZ082iqQ71JPYvCp7bj-176">
          <mxGeometry y="48" width="60" height="30" as="geometry" />
        </mxCell>
        <mxCell id="bFZ082iqQ71JPYvCp7bj-132" value="&lt;font style=&quot;font-size: 8px;&quot;&gt;Cin&lt;/font&gt;" style="text;html=1;strokeColor=none;fillColor=none;align=center;verticalAlign=middle;whiteSpace=wrap;rounded=0;" vertex="1" parent="bFZ082iqQ71JPYvCp7bj-176">
          <mxGeometry x="57" y="48" width="60" height="30" as="geometry" />
        </mxCell>
        <mxCell id="bFZ082iqQ71JPYvCp7bj-230" style="edgeStyle=orthogonalEdgeStyle;rounded=0;orthogonalLoop=1;jettySize=auto;html=1;startArrow=classic;startFill=1;endArrow=none;endFill=0;" edge="1" parent="1" source="bFZ082iqQ71JPYvCp7bj-252">
          <mxGeometry relative="1" as="geometry">
            <mxPoint x="687" y="455" as="targetPoint" />
          </mxGeometry>
        </mxCell>
        <mxCell id="bFZ082iqQ71JPYvCp7bj-231" value="&lt;font style=&quot;font-size: 15px;&quot;&gt;Q5&lt;/font&gt;" style="edgeLabel;html=1;align=center;verticalAlign=middle;resizable=0;points=[];fontStyle=1" vertex="1" connectable="0" parent="bFZ082iqQ71JPYvCp7bj-230">
          <mxGeometry x="0.0581" y="-1" relative="1" as="geometry">
            <mxPoint x="-2" as="offset" />
          </mxGeometry>
        </mxCell>
        <mxCell id="bFZ082iqQ71JPYvCp7bj-232" style="rounded=0;orthogonalLoop=1;jettySize=auto;html=1;exitX=0;exitY=0;exitDx=0;exitDy=0;startArrow=classic;startFill=1;endArrow=none;endFill=0;" edge="1" parent="1" source="bFZ082iqQ71JPYvCp7bj-252">
          <mxGeometry relative="1" as="geometry">
            <mxPoint x="677" y="365" as="targetPoint" />
          </mxGeometry>
        </mxCell>
        <mxCell id="bFZ082iqQ71JPYvCp7bj-233" value="&lt;b style=&quot;font-size: 15px;&quot;&gt;&lt;font style=&quot;font-size: 15px;&quot;&gt;D2&lt;/font&gt;&lt;/b&gt;" style="edgeLabel;html=1;align=center;verticalAlign=middle;resizable=0;points=[];fontSize=15;" vertex="1" connectable="0" parent="bFZ082iqQ71JPYvCp7bj-232">
          <mxGeometry x="-0.0533" y="1" relative="1" as="geometry">
            <mxPoint x="-4" y="-5" as="offset" />
          </mxGeometry>
        </mxCell>
        <mxCell id="bFZ082iqQ71JPYvCp7bj-235" style="edgeStyle=orthogonalEdgeStyle;rounded=0;orthogonalLoop=1;jettySize=auto;html=1;startArrow=classic;startFill=1;endArrow=none;endFill=0;" edge="1" parent="1">
          <mxGeometry relative="1" as="geometry">
            <mxPoint x="827" y="370" as="targetPoint" />
            <mxPoint x="807" y="432" as="sourcePoint" />
          </mxGeometry>
        </mxCell>
        <mxCell id="bFZ082iqQ71JPYvCp7bj-236" value="Div_nMul" style="edgeLabel;html=1;align=center;verticalAlign=middle;resizable=0;points=[];rotation=-90;fontSize=11;fontStyle=1" vertex="1" connectable="0" parent="bFZ082iqQ71JPYvCp7bj-235">
          <mxGeometry x="0.2413" relative="1" as="geometry">
            <mxPoint y="5" as="offset" />
          </mxGeometry>
        </mxCell>
        <mxCell id="bFZ082iqQ71JPYvCp7bj-237" style="edgeStyle=orthogonalEdgeStyle;rounded=0;orthogonalLoop=1;jettySize=auto;html=1;entryX=0.469;entryY=0;entryDx=0;entryDy=0;entryPerimeter=0;" edge="1" parent="1" source="bFZ082iqQ71JPYvCp7bj-252" target="bFZ082iqQ71JPYvCp7bj-748">
          <mxGeometry relative="1" as="geometry">
            <mxPoint x="767.5" y="557.9999999999999" as="targetPoint" />
          </mxGeometry>
        </mxCell>
        <mxCell id="bFZ082iqQ71JPYvCp7bj-238" style="edgeStyle=orthogonalEdgeStyle;rounded=0;orthogonalLoop=1;jettySize=auto;html=1;startArrow=classic;startFill=1;endArrow=none;endFill=0;" edge="1" parent="1">
          <mxGeometry relative="1" as="geometry">
            <mxPoint x="687" y="435" as="targetPoint" />
            <mxPoint x="727" y="435" as="sourcePoint" />
          </mxGeometry>
        </mxCell>
        <mxCell id="bFZ082iqQ71JPYvCp7bj-239" value="&lt;font style=&quot;font-size: 15px;&quot;&gt;B1&lt;/font&gt;" style="edgeLabel;html=1;align=center;verticalAlign=middle;resizable=0;points=[];fontStyle=1" vertex="1" connectable="0" parent="bFZ082iqQ71JPYvCp7bj-238">
          <mxGeometry x="-0.0593" y="-1" relative="1" as="geometry">
            <mxPoint x="-6" as="offset" />
          </mxGeometry>
        </mxCell>
        <mxCell id="bFZ082iqQ71JPYvCp7bj-240" style="edgeStyle=orthogonalEdgeStyle;rounded=0;orthogonalLoop=1;jettySize=auto;html=1;startArrow=classic;startFill=1;endArrow=none;endFill=0;" edge="1" parent="1" source="bFZ082iqQ71JPYvCp7bj-256">
          <mxGeometry relative="1" as="geometry">
            <mxPoint x="867" y="455" as="targetPoint" />
          </mxGeometry>
        </mxCell>
        <mxCell id="bFZ082iqQ71JPYvCp7bj-241" value="&lt;font style=&quot;font-size: 15px;&quot;&gt;Q5&lt;/font&gt;" style="edgeLabel;html=1;align=center;verticalAlign=middle;resizable=0;points=[];fontStyle=1" vertex="1" connectable="0" parent="bFZ082iqQ71JPYvCp7bj-240">
          <mxGeometry x="0.0581" y="-1" relative="1" as="geometry">
            <mxPoint x="-2" as="offset" />
          </mxGeometry>
        </mxCell>
        <mxCell id="bFZ082iqQ71JPYvCp7bj-242" style="rounded=0;orthogonalLoop=1;jettySize=auto;html=1;exitX=0;exitY=0;exitDx=0;exitDy=0;startArrow=classic;startFill=1;endArrow=none;endFill=0;" edge="1" parent="1" source="bFZ082iqQ71JPYvCp7bj-256">
          <mxGeometry relative="1" as="geometry">
            <mxPoint x="857" y="365" as="targetPoint" />
          </mxGeometry>
        </mxCell>
        <mxCell id="bFZ082iqQ71JPYvCp7bj-243" value="&lt;b style=&quot;font-size: 15px;&quot;&gt;&lt;font style=&quot;font-size: 15px;&quot;&gt;D1&lt;/font&gt;&lt;/b&gt;" style="edgeLabel;html=1;align=center;verticalAlign=middle;resizable=0;points=[];fontSize=15;" vertex="1" connectable="0" parent="bFZ082iqQ71JPYvCp7bj-242">
          <mxGeometry x="-0.0533" y="1" relative="1" as="geometry">
            <mxPoint x="-4" y="-5" as="offset" />
          </mxGeometry>
        </mxCell>
        <mxCell id="bFZ082iqQ71JPYvCp7bj-245" style="edgeStyle=orthogonalEdgeStyle;rounded=0;orthogonalLoop=1;jettySize=auto;html=1;startArrow=classic;startFill=1;endArrow=none;endFill=0;" edge="1" parent="1">
          <mxGeometry relative="1" as="geometry">
            <mxPoint x="1007" y="370" as="targetPoint" />
            <mxPoint x="987" y="432" as="sourcePoint" />
          </mxGeometry>
        </mxCell>
        <mxCell id="bFZ082iqQ71JPYvCp7bj-246" value="Div_nMul" style="edgeLabel;html=1;align=center;verticalAlign=middle;resizable=0;points=[];rotation=-90;fontSize=11;fontStyle=1" vertex="1" connectable="0" parent="bFZ082iqQ71JPYvCp7bj-245">
          <mxGeometry x="0.2413" relative="1" as="geometry">
            <mxPoint y="7" as="offset" />
          </mxGeometry>
        </mxCell>
        <mxCell id="bFZ082iqQ71JPYvCp7bj-248" style="edgeStyle=orthogonalEdgeStyle;rounded=0;orthogonalLoop=1;jettySize=auto;html=1;entryX=1;entryY=0.75;entryDx=0;entryDy=0;exitX=0;exitY=0.75;exitDx=0;exitDy=0;" edge="1" parent="1">
          <mxGeometry relative="1" as="geometry">
            <mxPoint x="907" y="480" as="sourcePoint" />
            <mxPoint x="807" y="480" as="targetPoint" />
          </mxGeometry>
        </mxCell>
        <mxCell id="bFZ082iqQ71JPYvCp7bj-249" style="edgeStyle=orthogonalEdgeStyle;rounded=0;orthogonalLoop=1;jettySize=auto;html=1;startArrow=classic;startFill=1;endArrow=none;endFill=0;" edge="1" parent="1">
          <mxGeometry relative="1" as="geometry">
            <mxPoint x="867" y="435" as="targetPoint" />
            <mxPoint x="907" y="435" as="sourcePoint" />
          </mxGeometry>
        </mxCell>
        <mxCell id="bFZ082iqQ71JPYvCp7bj-250" value="&lt;font style=&quot;font-size: 15px;&quot;&gt;B1&lt;/font&gt;" style="edgeLabel;html=1;align=center;verticalAlign=middle;resizable=0;points=[];fontStyle=1" vertex="1" connectable="0" parent="bFZ082iqQ71JPYvCp7bj-249">
          <mxGeometry x="-0.0593" y="-1" relative="1" as="geometry">
            <mxPoint x="-6" as="offset" />
          </mxGeometry>
        </mxCell>
        <mxCell id="bFZ082iqQ71JPYvCp7bj-251" value="" style="group" vertex="1" connectable="0" parent="1">
          <mxGeometry x="712" y="415" width="117" height="80" as="geometry" />
        </mxCell>
        <mxCell id="bFZ082iqQ71JPYvCp7bj-252" value="&lt;b&gt;&lt;font style=&quot;font-size: 19px;&quot;&gt;Cell 1&lt;/font&gt;&lt;/b&gt;" style="rounded=0;whiteSpace=wrap;html=1;strokeWidth=2;" vertex="1" parent="bFZ082iqQ71JPYvCp7bj-251">
          <mxGeometry x="15" width="80" height="80" as="geometry" />
        </mxCell>
        <mxCell id="bFZ082iqQ71JPYvCp7bj-253" value="&lt;font style=&quot;font-size: 8px;&quot;&gt;Cout&lt;/font&gt;" style="text;html=1;strokeColor=none;fillColor=none;align=center;verticalAlign=middle;whiteSpace=wrap;rounded=0;" vertex="1" parent="bFZ082iqQ71JPYvCp7bj-251">
          <mxGeometry x="-3" y="49" width="60" height="30" as="geometry" />
        </mxCell>
        <mxCell id="bFZ082iqQ71JPYvCp7bj-254" value="&lt;font style=&quot;font-size: 8px;&quot;&gt;Cin&lt;/font&gt;" style="text;html=1;strokeColor=none;fillColor=none;align=center;verticalAlign=middle;whiteSpace=wrap;rounded=0;" vertex="1" parent="bFZ082iqQ71JPYvCp7bj-251">
          <mxGeometry x="55" y="48" width="60" height="30" as="geometry" />
        </mxCell>
        <mxCell id="bFZ082iqQ71JPYvCp7bj-255" value="" style="group" vertex="1" connectable="0" parent="1">
          <mxGeometry x="889" y="415" width="117" height="80" as="geometry" />
        </mxCell>
        <mxCell id="bFZ082iqQ71JPYvCp7bj-256" value="&lt;b&gt;&lt;font style=&quot;font-size: 19px;&quot;&gt;Cell 1&lt;/font&gt;&lt;/b&gt;" style="rounded=0;whiteSpace=wrap;html=1;strokeWidth=2;" vertex="1" parent="bFZ082iqQ71JPYvCp7bj-255">
          <mxGeometry x="18" width="80" height="80" as="geometry" />
        </mxCell>
        <mxCell id="bFZ082iqQ71JPYvCp7bj-257" value="&lt;font style=&quot;font-size: 8px;&quot;&gt;Cout&lt;/font&gt;" style="text;html=1;strokeColor=none;fillColor=none;align=center;verticalAlign=middle;whiteSpace=wrap;rounded=0;" vertex="1" parent="bFZ082iqQ71JPYvCp7bj-255">
          <mxGeometry y="48" width="60" height="30" as="geometry" />
        </mxCell>
        <mxCell id="bFZ082iqQ71JPYvCp7bj-258" value="&lt;font style=&quot;font-size: 8px;&quot;&gt;Cin&lt;/font&gt;" style="text;html=1;strokeColor=none;fillColor=none;align=center;verticalAlign=middle;whiteSpace=wrap;rounded=0;" vertex="1" parent="bFZ082iqQ71JPYvCp7bj-255">
          <mxGeometry x="57" y="48" width="60" height="30" as="geometry" />
        </mxCell>
        <mxCell id="bFZ082iqQ71JPYvCp7bj-259" style="edgeStyle=orthogonalEdgeStyle;rounded=0;orthogonalLoop=1;jettySize=auto;html=1;startArrow=classic;startFill=1;endArrow=none;endFill=0;" edge="1" parent="1" source="bFZ082iqQ71JPYvCp7bj-275">
          <mxGeometry relative="1" as="geometry">
            <mxPoint x="1047" y="455" as="targetPoint" />
          </mxGeometry>
        </mxCell>
        <mxCell id="bFZ082iqQ71JPYvCp7bj-260" value="&lt;font style=&quot;font-size: 15px;&quot;&gt;Q5&lt;/font&gt;" style="edgeLabel;html=1;align=center;verticalAlign=middle;resizable=0;points=[];fontStyle=1" vertex="1" connectable="0" parent="bFZ082iqQ71JPYvCp7bj-259">
          <mxGeometry x="0.0581" y="-1" relative="1" as="geometry">
            <mxPoint x="-2" as="offset" />
          </mxGeometry>
        </mxCell>
        <mxCell id="bFZ082iqQ71JPYvCp7bj-261" style="rounded=0;orthogonalLoop=1;jettySize=auto;html=1;exitX=0;exitY=0;exitDx=0;exitDy=0;startArrow=classic;startFill=1;endArrow=none;endFill=0;" edge="1" parent="1" source="bFZ082iqQ71JPYvCp7bj-275">
          <mxGeometry relative="1" as="geometry">
            <mxPoint x="1037" y="365" as="targetPoint" />
          </mxGeometry>
        </mxCell>
        <mxCell id="bFZ082iqQ71JPYvCp7bj-262" value="&lt;b style=&quot;font-size: 15px;&quot;&gt;&lt;font style=&quot;font-size: 15px;&quot;&gt;D0&lt;/font&gt;&lt;/b&gt;" style="edgeLabel;html=1;align=center;verticalAlign=middle;resizable=0;points=[];fontSize=15;" vertex="1" connectable="0" parent="bFZ082iqQ71JPYvCp7bj-261">
          <mxGeometry x="-0.0533" y="1" relative="1" as="geometry">
            <mxPoint x="-4" y="-5" as="offset" />
          </mxGeometry>
        </mxCell>
        <mxCell id="bFZ082iqQ71JPYvCp7bj-263" style="edgeStyle=orthogonalEdgeStyle;rounded=0;orthogonalLoop=1;jettySize=auto;html=1;startArrow=classic;startFill=1;endArrow=none;endFill=0;exitX=0.5;exitY=0;exitDx=0;exitDy=0;" edge="1" parent="1" source="bFZ082iqQ71JPYvCp7bj-275">
          <mxGeometry relative="1" as="geometry">
            <mxPoint x="1690" y="70" as="targetPoint" />
            <Array as="points">
              <mxPoint x="1127" y="380" />
              <mxPoint x="1690" y="380" />
              <mxPoint x="1690" y="70" />
            </Array>
          </mxGeometry>
        </mxCell>
        <mxCell id="bFZ082iqQ71JPYvCp7bj-264" style="edgeStyle=orthogonalEdgeStyle;rounded=0;orthogonalLoop=1;jettySize=auto;html=1;entryX=1;entryY=0.75;entryDx=0;entryDy=0;exitX=0;exitY=0.75;exitDx=0;exitDy=0;" edge="1" parent="1">
          <mxGeometry relative="1" as="geometry">
            <mxPoint x="1087" y="480" as="sourcePoint" />
            <mxPoint x="987" y="480" as="targetPoint" />
          </mxGeometry>
        </mxCell>
        <mxCell id="bFZ082iqQ71JPYvCp7bj-265" style="edgeStyle=orthogonalEdgeStyle;rounded=0;orthogonalLoop=1;jettySize=auto;html=1;startArrow=classic;startFill=1;endArrow=none;endFill=0;" edge="1" parent="1">
          <mxGeometry relative="1" as="geometry">
            <mxPoint x="1047" y="435" as="targetPoint" />
            <mxPoint x="1087" y="435" as="sourcePoint" />
          </mxGeometry>
        </mxCell>
        <mxCell id="bFZ082iqQ71JPYvCp7bj-266" value="&lt;font style=&quot;font-size: 15px;&quot;&gt;B1&lt;/font&gt;" style="edgeLabel;html=1;align=center;verticalAlign=middle;resizable=0;points=[];fontStyle=1" vertex="1" connectable="0" parent="bFZ082iqQ71JPYvCp7bj-265">
          <mxGeometry x="-0.0593" y="-1" relative="1" as="geometry">
            <mxPoint x="-6" as="offset" />
          </mxGeometry>
        </mxCell>
        <mxCell id="bFZ082iqQ71JPYvCp7bj-269" value="&lt;b&gt;&lt;font style=&quot;font-size: 15px;&quot;&gt;A4&lt;/font&gt;&lt;/b&gt;" style="text;html=1;strokeColor=none;fillColor=none;align=center;verticalAlign=middle;whiteSpace=wrap;rounded=0;" vertex="1" parent="1">
          <mxGeometry x="1113.5" y="340" width="34" height="30" as="geometry" />
        </mxCell>
        <mxCell id="bFZ082iqQ71JPYvCp7bj-270" style="edgeStyle=orthogonalEdgeStyle;rounded=0;orthogonalLoop=1;jettySize=auto;html=1;startArrow=classic;startFill=1;endArrow=none;endFill=0;" edge="1" parent="1">
          <mxGeometry relative="1" as="geometry">
            <mxPoint x="1227" y="434" as="targetPoint" />
            <mxPoint x="1167" y="434" as="sourcePoint" />
          </mxGeometry>
        </mxCell>
        <mxCell id="bFZ082iqQ71JPYvCp7bj-271" value="Div_nMul" style="edgeLabel;html=1;align=center;verticalAlign=middle;resizable=0;points=[];" vertex="1" connectable="0" parent="bFZ082iqQ71JPYvCp7bj-270">
          <mxGeometry x="-0.1605" relative="1" as="geometry">
            <mxPoint x="15" as="offset" />
          </mxGeometry>
        </mxCell>
        <mxCell id="bFZ082iqQ71JPYvCp7bj-272" style="edgeStyle=orthogonalEdgeStyle;rounded=0;orthogonalLoop=1;jettySize=auto;html=1;startArrow=classic;startFill=1;endArrow=none;endFill=0;" edge="1" parent="1">
          <mxGeometry relative="1" as="geometry">
            <mxPoint x="1217" y="480" as="targetPoint" />
            <mxPoint x="1167" y="480" as="sourcePoint" />
          </mxGeometry>
        </mxCell>
        <mxCell id="bFZ082iqQ71JPYvCp7bj-273" value="&lt;b&gt;&lt;font style=&quot;font-size: 15px;&quot;&gt;Q5&lt;/font&gt;&lt;/b&gt;" style="edgeLabel;html=1;align=center;verticalAlign=middle;resizable=0;points=[];" vertex="1" connectable="0" parent="bFZ082iqQ71JPYvCp7bj-272">
          <mxGeometry x="0.2226" relative="1" as="geometry">
            <mxPoint x="-3" y="-1" as="offset" />
          </mxGeometry>
        </mxCell>
        <mxCell id="bFZ082iqQ71JPYvCp7bj-274" value="" style="group" vertex="1" connectable="0" parent="1">
          <mxGeometry x="1069" y="415" width="117" height="80" as="geometry" />
        </mxCell>
        <mxCell id="bFZ082iqQ71JPYvCp7bj-275" value="&lt;b&gt;&lt;font style=&quot;font-size: 19px;&quot;&gt;Cell 2&lt;/font&gt;&lt;/b&gt;" style="rounded=0;whiteSpace=wrap;html=1;strokeWidth=2;" vertex="1" parent="bFZ082iqQ71JPYvCp7bj-274">
          <mxGeometry x="18" width="80" height="80" as="geometry" />
        </mxCell>
        <mxCell id="bFZ082iqQ71JPYvCp7bj-276" value="&lt;font style=&quot;font-size: 8px;&quot;&gt;Cout&lt;/font&gt;" style="text;html=1;strokeColor=none;fillColor=none;align=center;verticalAlign=middle;whiteSpace=wrap;rounded=0;" vertex="1" parent="bFZ082iqQ71JPYvCp7bj-274">
          <mxGeometry y="48" width="60" height="30" as="geometry" />
        </mxCell>
        <mxCell id="bFZ082iqQ71JPYvCp7bj-277" value="&lt;font style=&quot;font-size: 8px;&quot;&gt;Cin&lt;/font&gt;" style="text;html=1;strokeColor=none;fillColor=none;align=center;verticalAlign=middle;whiteSpace=wrap;rounded=0;" vertex="1" parent="bFZ082iqQ71JPYvCp7bj-274">
          <mxGeometry x="57" y="48" width="60" height="30" as="geometry" />
        </mxCell>
        <mxCell id="bFZ082iqQ71JPYvCp7bj-279" style="edgeStyle=orthogonalEdgeStyle;rounded=0;orthogonalLoop=1;jettySize=auto;html=1;entryX=0.5;entryY=0;entryDx=0;entryDy=0;" edge="1" parent="1" source="bFZ082iqQ71JPYvCp7bj-87" target="bFZ082iqQ71JPYvCp7bj-252">
          <mxGeometry relative="1" as="geometry" />
        </mxCell>
        <mxCell id="bFZ082iqQ71JPYvCp7bj-280" style="edgeStyle=orthogonalEdgeStyle;rounded=0;orthogonalLoop=1;jettySize=auto;html=1;entryX=0.5;entryY=0;entryDx=0;entryDy=0;" edge="1" parent="1" source="bFZ082iqQ71JPYvCp7bj-130" target="bFZ082iqQ71JPYvCp7bj-256">
          <mxGeometry relative="1" as="geometry" />
        </mxCell>
        <mxCell id="bFZ082iqQ71JPYvCp7bj-480" style="edgeStyle=orthogonalEdgeStyle;rounded=0;orthogonalLoop=1;jettySize=auto;html=1;startArrow=classic;startFill=1;endArrow=none;endFill=0;" edge="1" parent="1" source="bFZ082iqQ71JPYvCp7bj-501">
          <mxGeometry relative="1" as="geometry">
            <mxPoint x="867" y="598" as="targetPoint" />
          </mxGeometry>
        </mxCell>
        <mxCell id="bFZ082iqQ71JPYvCp7bj-481" value="&lt;font style=&quot;font-size: 15px;&quot;&gt;Q4&lt;/font&gt;" style="edgeLabel;html=1;align=center;verticalAlign=middle;resizable=0;points=[];fontStyle=1" vertex="1" connectable="0" parent="bFZ082iqQ71JPYvCp7bj-480">
          <mxGeometry x="0.0581" y="-1" relative="1" as="geometry">
            <mxPoint x="-2" as="offset" />
          </mxGeometry>
        </mxCell>
        <mxCell id="bFZ082iqQ71JPYvCp7bj-482" style="rounded=0;orthogonalLoop=1;jettySize=auto;html=1;exitX=0;exitY=0;exitDx=0;exitDy=0;startArrow=classic;startFill=1;endArrow=none;endFill=0;" edge="1" parent="1" source="bFZ082iqQ71JPYvCp7bj-501">
          <mxGeometry relative="1" as="geometry">
            <mxPoint x="857" y="508" as="targetPoint" />
          </mxGeometry>
        </mxCell>
        <mxCell id="bFZ082iqQ71JPYvCp7bj-483" value="&lt;b style=&quot;font-size: 15px;&quot;&gt;&lt;font style=&quot;font-size: 15px;&quot;&gt;D2&lt;/font&gt;&lt;/b&gt;" style="edgeLabel;html=1;align=center;verticalAlign=middle;resizable=0;points=[];fontSize=15;" vertex="1" connectable="0" parent="bFZ082iqQ71JPYvCp7bj-482">
          <mxGeometry x="-0.0533" y="1" relative="1" as="geometry">
            <mxPoint x="-4" y="-5" as="offset" />
          </mxGeometry>
        </mxCell>
        <mxCell id="bFZ082iqQ71JPYvCp7bj-485" style="edgeStyle=orthogonalEdgeStyle;rounded=0;orthogonalLoop=1;jettySize=auto;html=1;startArrow=classic;startFill=1;endArrow=none;endFill=0;" edge="1" parent="1">
          <mxGeometry relative="1" as="geometry">
            <mxPoint x="1007" y="508" as="targetPoint" />
            <mxPoint x="987" y="575" as="sourcePoint" />
          </mxGeometry>
        </mxCell>
        <mxCell id="bFZ082iqQ71JPYvCp7bj-486" value="Div_nMul" style="edgeLabel;html=1;align=center;verticalAlign=middle;resizable=0;points=[];rotation=-90;fontSize=12;fontStyle=1" vertex="1" connectable="0" parent="bFZ082iqQ71JPYvCp7bj-485">
          <mxGeometry x="0.2413" relative="1" as="geometry">
            <mxPoint as="offset" />
          </mxGeometry>
        </mxCell>
        <mxCell id="bFZ082iqQ71JPYvCp7bj-488" style="edgeStyle=orthogonalEdgeStyle;rounded=0;orthogonalLoop=1;jettySize=auto;html=1;startArrow=classic;startFill=1;endArrow=none;endFill=0;" edge="1" parent="1">
          <mxGeometry relative="1" as="geometry">
            <mxPoint x="867" y="578" as="targetPoint" />
            <mxPoint x="907" y="578" as="sourcePoint" />
          </mxGeometry>
        </mxCell>
        <mxCell id="bFZ082iqQ71JPYvCp7bj-489" value="&lt;font style=&quot;font-size: 15px;&quot;&gt;B0&lt;/font&gt;" style="edgeLabel;html=1;align=center;verticalAlign=middle;resizable=0;points=[];fontStyle=1" vertex="1" connectable="0" parent="bFZ082iqQ71JPYvCp7bj-488">
          <mxGeometry x="-0.0593" y="-1" relative="1" as="geometry">
            <mxPoint x="-6" as="offset" />
          </mxGeometry>
        </mxCell>
        <mxCell id="bFZ082iqQ71JPYvCp7bj-490" style="edgeStyle=orthogonalEdgeStyle;rounded=0;orthogonalLoop=1;jettySize=auto;html=1;startArrow=classic;startFill=1;endArrow=none;endFill=0;" edge="1" parent="1" source="bFZ082iqQ71JPYvCp7bj-505">
          <mxGeometry relative="1" as="geometry">
            <mxPoint x="1047" y="598" as="targetPoint" />
          </mxGeometry>
        </mxCell>
        <mxCell id="bFZ082iqQ71JPYvCp7bj-491" value="&lt;font style=&quot;font-size: 15px;&quot;&gt;Q4&lt;/font&gt;" style="edgeLabel;html=1;align=center;verticalAlign=middle;resizable=0;points=[];fontStyle=1" vertex="1" connectable="0" parent="bFZ082iqQ71JPYvCp7bj-490">
          <mxGeometry x="0.0581" y="-1" relative="1" as="geometry">
            <mxPoint x="-2" as="offset" />
          </mxGeometry>
        </mxCell>
        <mxCell id="bFZ082iqQ71JPYvCp7bj-492" style="rounded=0;orthogonalLoop=1;jettySize=auto;html=1;exitX=0;exitY=0;exitDx=0;exitDy=0;startArrow=classic;startFill=1;endArrow=none;endFill=0;" edge="1" parent="1" source="bFZ082iqQ71JPYvCp7bj-505">
          <mxGeometry relative="1" as="geometry">
            <mxPoint x="1037" y="508" as="targetPoint" />
          </mxGeometry>
        </mxCell>
        <mxCell id="bFZ082iqQ71JPYvCp7bj-493" value="&lt;b style=&quot;font-size: 15px;&quot;&gt;&lt;font style=&quot;font-size: 15px;&quot;&gt;D1&lt;/font&gt;&lt;/b&gt;" style="edgeLabel;html=1;align=center;verticalAlign=middle;resizable=0;points=[];fontSize=15;" vertex="1" connectable="0" parent="bFZ082iqQ71JPYvCp7bj-492">
          <mxGeometry x="-0.0533" y="1" relative="1" as="geometry">
            <mxPoint x="-4" y="-5" as="offset" />
          </mxGeometry>
        </mxCell>
        <mxCell id="bFZ082iqQ71JPYvCp7bj-495" style="edgeStyle=orthogonalEdgeStyle;rounded=0;orthogonalLoop=1;jettySize=auto;html=1;startArrow=classic;startFill=1;endArrow=none;endFill=0;" edge="1" parent="1">
          <mxGeometry relative="1" as="geometry">
            <mxPoint x="1187" y="508" as="targetPoint" />
            <mxPoint x="1167" y="575" as="sourcePoint" />
          </mxGeometry>
        </mxCell>
        <mxCell id="bFZ082iqQ71JPYvCp7bj-496" value="Div_nMul" style="edgeLabel;html=1;align=center;verticalAlign=middle;resizable=0;points=[];rotation=-90;fontSize=12;fontStyle=1" vertex="1" connectable="0" parent="bFZ082iqQ71JPYvCp7bj-495">
          <mxGeometry x="0.2413" relative="1" as="geometry">
            <mxPoint as="offset" />
          </mxGeometry>
        </mxCell>
        <mxCell id="bFZ082iqQ71JPYvCp7bj-497" style="edgeStyle=orthogonalEdgeStyle;rounded=0;orthogonalLoop=1;jettySize=auto;html=1;entryX=1;entryY=0.75;entryDx=0;entryDy=0;exitX=0;exitY=0.75;exitDx=0;exitDy=0;" edge="1" parent="1">
          <mxGeometry relative="1" as="geometry">
            <mxPoint x="1087" y="623" as="sourcePoint" />
            <mxPoint x="987" y="623" as="targetPoint" />
          </mxGeometry>
        </mxCell>
        <mxCell id="bFZ082iqQ71JPYvCp7bj-498" style="edgeStyle=orthogonalEdgeStyle;rounded=0;orthogonalLoop=1;jettySize=auto;html=1;startArrow=classic;startFill=1;endArrow=none;endFill=0;" edge="1" parent="1">
          <mxGeometry relative="1" as="geometry">
            <mxPoint x="1047" y="578" as="targetPoint" />
            <mxPoint x="1087" y="578" as="sourcePoint" />
          </mxGeometry>
        </mxCell>
        <mxCell id="bFZ082iqQ71JPYvCp7bj-499" value="&lt;font style=&quot;font-size: 15px;&quot;&gt;B0&lt;/font&gt;" style="edgeLabel;html=1;align=center;verticalAlign=middle;resizable=0;points=[];fontStyle=1" vertex="1" connectable="0" parent="bFZ082iqQ71JPYvCp7bj-498">
          <mxGeometry x="-0.0593" y="-1" relative="1" as="geometry">
            <mxPoint x="-6" as="offset" />
          </mxGeometry>
        </mxCell>
        <mxCell id="bFZ082iqQ71JPYvCp7bj-500" value="" style="group" vertex="1" connectable="0" parent="1">
          <mxGeometry x="892" y="558" width="117" height="80" as="geometry" />
        </mxCell>
        <mxCell id="bFZ082iqQ71JPYvCp7bj-754" style="edgeStyle=orthogonalEdgeStyle;rounded=0;orthogonalLoop=1;jettySize=auto;html=1;" edge="1" parent="bFZ082iqQ71JPYvCp7bj-500">
          <mxGeometry relative="1" as="geometry">
            <mxPoint x="-85" y="64" as="targetPoint" />
            <mxPoint x="15" y="64" as="sourcePoint" />
          </mxGeometry>
        </mxCell>
        <mxCell id="bFZ082iqQ71JPYvCp7bj-812" value="&lt;b&gt;&lt;font style=&quot;font-size: 15px;&quot;&gt;Q3&lt;/font&gt;&lt;/b&gt;" style="edgeLabel;html=1;align=center;verticalAlign=middle;resizable=0;points=[];" vertex="1" connectable="0" parent="bFZ082iqQ71JPYvCp7bj-754">
          <mxGeometry y="-1" relative="1" as="geometry">
            <mxPoint y="2" as="offset" />
          </mxGeometry>
        </mxCell>
        <mxCell id="bFZ082iqQ71JPYvCp7bj-501" value="&lt;b&gt;&lt;font style=&quot;font-size: 19px;&quot;&gt;Cell 1&lt;/font&gt;&lt;/b&gt;" style="rounded=0;whiteSpace=wrap;html=1;strokeWidth=2;" vertex="1" parent="bFZ082iqQ71JPYvCp7bj-500">
          <mxGeometry x="15" width="80" height="80" as="geometry" />
        </mxCell>
        <mxCell id="bFZ082iqQ71JPYvCp7bj-502" value="&lt;font style=&quot;font-size: 8px;&quot;&gt;Cout&lt;/font&gt;" style="text;html=1;strokeColor=none;fillColor=none;align=center;verticalAlign=middle;whiteSpace=wrap;rounded=0;movable=0;resizable=0;rotatable=0;deletable=0;editable=0;locked=1;connectable=0;" vertex="1" parent="bFZ082iqQ71JPYvCp7bj-500">
          <mxGeometry x="15" y="50" width="23" height="30" as="geometry" />
        </mxCell>
        <mxCell id="bFZ082iqQ71JPYvCp7bj-503" value="&lt;font style=&quot;font-size: 8px;&quot;&gt;Cin&lt;/font&gt;" style="text;html=1;strokeColor=none;fillColor=none;align=center;verticalAlign=middle;whiteSpace=wrap;rounded=0;movable=0;resizable=0;rotatable=0;deletable=0;editable=0;locked=1;connectable=0;" vertex="1" parent="bFZ082iqQ71JPYvCp7bj-500">
          <mxGeometry x="70" y="50" width="25" height="30" as="geometry" />
        </mxCell>
        <mxCell id="bFZ082iqQ71JPYvCp7bj-504" value="" style="group" vertex="1" connectable="0" parent="1">
          <mxGeometry x="1069" y="558" width="117" height="80" as="geometry" />
        </mxCell>
        <mxCell id="bFZ082iqQ71JPYvCp7bj-505" value="&lt;b&gt;&lt;font style=&quot;font-size: 19px;&quot;&gt;Cell 1&lt;/font&gt;&lt;/b&gt;" style="rounded=0;whiteSpace=wrap;html=1;strokeWidth=2;" vertex="1" parent="bFZ082iqQ71JPYvCp7bj-504">
          <mxGeometry x="18" width="80" height="80" as="geometry" />
        </mxCell>
        <mxCell id="bFZ082iqQ71JPYvCp7bj-506" value="&lt;font style=&quot;font-size: 8px;&quot;&gt;Cout&lt;/font&gt;" style="text;html=1;strokeColor=none;fillColor=none;align=center;verticalAlign=middle;whiteSpace=wrap;rounded=0;" vertex="1" parent="bFZ082iqQ71JPYvCp7bj-504">
          <mxGeometry y="48" width="60" height="30" as="geometry" />
        </mxCell>
        <mxCell id="bFZ082iqQ71JPYvCp7bj-507" value="&lt;font style=&quot;font-size: 8px;&quot;&gt;Cin&lt;/font&gt;" style="text;html=1;strokeColor=none;fillColor=none;align=center;verticalAlign=middle;whiteSpace=wrap;rounded=0;" vertex="1" parent="bFZ082iqQ71JPYvCp7bj-504">
          <mxGeometry x="57" y="48" width="60" height="30" as="geometry" />
        </mxCell>
        <mxCell id="bFZ082iqQ71JPYvCp7bj-508" style="edgeStyle=orthogonalEdgeStyle;rounded=0;orthogonalLoop=1;jettySize=auto;html=1;startArrow=classic;startFill=1;endArrow=none;endFill=0;" edge="1" parent="1" source="bFZ082iqQ71JPYvCp7bj-524">
          <mxGeometry relative="1" as="geometry">
            <mxPoint x="1227" y="598" as="targetPoint" />
          </mxGeometry>
        </mxCell>
        <mxCell id="bFZ082iqQ71JPYvCp7bj-509" value="&lt;span style=&quot;font-size: 15px;&quot;&gt;Q4&lt;/span&gt;" style="edgeLabel;html=1;align=center;verticalAlign=middle;resizable=0;points=[];fontStyle=1" vertex="1" connectable="0" parent="bFZ082iqQ71JPYvCp7bj-508">
          <mxGeometry x="0.0581" y="-1" relative="1" as="geometry">
            <mxPoint x="-2" as="offset" />
          </mxGeometry>
        </mxCell>
        <mxCell id="bFZ082iqQ71JPYvCp7bj-510" style="rounded=0;orthogonalLoop=1;jettySize=auto;html=1;exitX=0;exitY=0;exitDx=0;exitDy=0;startArrow=classic;startFill=1;endArrow=none;endFill=0;" edge="1" parent="1" source="bFZ082iqQ71JPYvCp7bj-524">
          <mxGeometry relative="1" as="geometry">
            <mxPoint x="1217" y="508" as="targetPoint" />
          </mxGeometry>
        </mxCell>
        <mxCell id="bFZ082iqQ71JPYvCp7bj-511" value="&lt;b style=&quot;font-size: 15px;&quot;&gt;&lt;font style=&quot;font-size: 15px;&quot;&gt;D0&lt;/font&gt;&lt;/b&gt;" style="edgeLabel;html=1;align=center;verticalAlign=middle;resizable=0;points=[];fontSize=15;" vertex="1" connectable="0" parent="bFZ082iqQ71JPYvCp7bj-510">
          <mxGeometry x="-0.0533" y="1" relative="1" as="geometry">
            <mxPoint x="-4" y="-5" as="offset" />
          </mxGeometry>
        </mxCell>
        <mxCell id="bFZ082iqQ71JPYvCp7bj-512" style="edgeStyle=orthogonalEdgeStyle;rounded=0;orthogonalLoop=1;jettySize=auto;html=1;startArrow=classic;startFill=1;endArrow=none;endFill=0;exitX=0.5;exitY=0;exitDx=0;exitDy=0;" edge="1" parent="1" source="bFZ082iqQ71JPYvCp7bj-518">
          <mxGeometry relative="1" as="geometry">
            <mxPoint x="1730" y="70" as="targetPoint" />
            <Array as="points">
              <mxPoint x="1307" y="520" />
              <mxPoint x="1730" y="520" />
              <mxPoint x="1730" y="70" />
            </Array>
          </mxGeometry>
        </mxCell>
        <mxCell id="bFZ082iqQ71JPYvCp7bj-513" style="edgeStyle=orthogonalEdgeStyle;rounded=0;orthogonalLoop=1;jettySize=auto;html=1;entryX=1;entryY=0.75;entryDx=0;entryDy=0;exitX=0;exitY=0.75;exitDx=0;exitDy=0;" edge="1" parent="1">
          <mxGeometry relative="1" as="geometry">
            <mxPoint x="1267" y="623" as="sourcePoint" />
            <mxPoint x="1167" y="623" as="targetPoint" />
          </mxGeometry>
        </mxCell>
        <mxCell id="bFZ082iqQ71JPYvCp7bj-514" style="edgeStyle=orthogonalEdgeStyle;rounded=0;orthogonalLoop=1;jettySize=auto;html=1;startArrow=classic;startFill=1;endArrow=none;endFill=0;" edge="1" parent="1">
          <mxGeometry relative="1" as="geometry">
            <mxPoint x="1227" y="578" as="targetPoint" />
            <mxPoint x="1267" y="578" as="sourcePoint" />
          </mxGeometry>
        </mxCell>
        <mxCell id="bFZ082iqQ71JPYvCp7bj-515" value="&lt;font style=&quot;font-size: 15px;&quot;&gt;B0&lt;/font&gt;" style="edgeLabel;html=1;align=center;verticalAlign=middle;resizable=0;points=[];fontStyle=1" vertex="1" connectable="0" parent="bFZ082iqQ71JPYvCp7bj-514">
          <mxGeometry x="-0.0593" y="-1" relative="1" as="geometry">
            <mxPoint x="-6" as="offset" />
          </mxGeometry>
        </mxCell>
        <mxCell id="bFZ082iqQ71JPYvCp7bj-518" value="&lt;b&gt;&lt;font style=&quot;font-size: 15px;&quot;&gt;A5&lt;/font&gt;&lt;/b&gt;" style="text;html=1;strokeColor=none;fillColor=none;align=center;verticalAlign=middle;whiteSpace=wrap;rounded=0;" vertex="1" parent="1">
          <mxGeometry x="1277.5" y="554" width="60" height="30" as="geometry" />
        </mxCell>
        <mxCell id="bFZ082iqQ71JPYvCp7bj-519" style="edgeStyle=orthogonalEdgeStyle;rounded=0;orthogonalLoop=1;jettySize=auto;html=1;startArrow=classic;startFill=1;endArrow=none;endFill=0;" edge="1" parent="1">
          <mxGeometry relative="1" as="geometry">
            <mxPoint x="1407" y="577" as="targetPoint" />
            <mxPoint x="1347" y="577" as="sourcePoint" />
          </mxGeometry>
        </mxCell>
        <mxCell id="bFZ082iqQ71JPYvCp7bj-520" value="Div_nMul" style="edgeLabel;html=1;align=center;verticalAlign=middle;resizable=0;points=[];" vertex="1" connectable="0" parent="bFZ082iqQ71JPYvCp7bj-519">
          <mxGeometry x="-0.1605" relative="1" as="geometry">
            <mxPoint x="15" as="offset" />
          </mxGeometry>
        </mxCell>
        <mxCell id="bFZ082iqQ71JPYvCp7bj-521" style="edgeStyle=orthogonalEdgeStyle;rounded=0;orthogonalLoop=1;jettySize=auto;html=1;startArrow=classic;startFill=1;endArrow=none;endFill=0;" edge="1" parent="1">
          <mxGeometry relative="1" as="geometry">
            <mxPoint x="1397" y="623" as="targetPoint" />
            <mxPoint x="1347" y="623" as="sourcePoint" />
          </mxGeometry>
        </mxCell>
        <mxCell id="bFZ082iqQ71JPYvCp7bj-522" value="&lt;b style=&quot;font-size: 15px;&quot;&gt;Q4&lt;/b&gt;" style="edgeLabel;html=1;align=center;verticalAlign=middle;resizable=0;points=[];fontSize=15;" vertex="1" connectable="0" parent="bFZ082iqQ71JPYvCp7bj-521">
          <mxGeometry x="0.2226" relative="1" as="geometry">
            <mxPoint as="offset" />
          </mxGeometry>
        </mxCell>
        <mxCell id="bFZ082iqQ71JPYvCp7bj-523" value="" style="group" vertex="1" connectable="0" parent="1">
          <mxGeometry x="1249" y="558" width="117" height="80" as="geometry" />
        </mxCell>
        <mxCell id="bFZ082iqQ71JPYvCp7bj-524" value="&lt;b&gt;&lt;font style=&quot;font-size: 19px;&quot;&gt;Cell 2&lt;/font&gt;&lt;/b&gt;" style="rounded=0;whiteSpace=wrap;html=1;strokeWidth=2;" vertex="1" parent="bFZ082iqQ71JPYvCp7bj-523">
          <mxGeometry x="18" width="80" height="80" as="geometry" />
        </mxCell>
        <mxCell id="bFZ082iqQ71JPYvCp7bj-525" value="&lt;font style=&quot;font-size: 8px;&quot;&gt;Cout&lt;/font&gt;" style="text;html=1;strokeColor=none;fillColor=none;align=center;verticalAlign=middle;whiteSpace=wrap;rounded=0;" vertex="1" parent="bFZ082iqQ71JPYvCp7bj-523">
          <mxGeometry y="48" width="60" height="30" as="geometry" />
        </mxCell>
        <mxCell id="bFZ082iqQ71JPYvCp7bj-526" value="&lt;font style=&quot;font-size: 8px;&quot;&gt;Cin&lt;/font&gt;" style="text;html=1;strokeColor=none;fillColor=none;align=center;verticalAlign=middle;whiteSpace=wrap;rounded=0;" vertex="1" parent="bFZ082iqQ71JPYvCp7bj-523">
          <mxGeometry x="57" y="48" width="60" height="30" as="geometry" />
        </mxCell>
        <mxCell id="bFZ082iqQ71JPYvCp7bj-527" style="edgeStyle=orthogonalEdgeStyle;rounded=0;orthogonalLoop=1;jettySize=auto;html=1;startArrow=classic;startFill=1;endArrow=none;endFill=0;" edge="1" parent="1" source="bFZ082iqQ71JPYvCp7bj-549">
          <mxGeometry relative="1" as="geometry">
            <mxPoint x="1047" y="743" as="targetPoint" />
          </mxGeometry>
        </mxCell>
        <mxCell id="bFZ082iqQ71JPYvCp7bj-528" value="&lt;font style=&quot;font-size: 15px;&quot;&gt;Q3&lt;/font&gt;" style="edgeLabel;html=1;align=center;verticalAlign=middle;resizable=0;points=[];fontStyle=1" vertex="1" connectable="0" parent="bFZ082iqQ71JPYvCp7bj-527">
          <mxGeometry x="0.0581" y="-1" relative="1" as="geometry">
            <mxPoint x="-2" as="offset" />
          </mxGeometry>
        </mxCell>
        <mxCell id="bFZ082iqQ71JPYvCp7bj-529" style="rounded=0;orthogonalLoop=1;jettySize=auto;html=1;exitX=0;exitY=0;exitDx=0;exitDy=0;startArrow=classic;startFill=1;endArrow=none;endFill=0;" edge="1" parent="1" source="bFZ082iqQ71JPYvCp7bj-549">
          <mxGeometry relative="1" as="geometry">
            <mxPoint x="1037" y="653" as="targetPoint" />
          </mxGeometry>
        </mxCell>
        <mxCell id="bFZ082iqQ71JPYvCp7bj-530" value="&lt;b style=&quot;font-size: 15px;&quot;&gt;&lt;font style=&quot;font-size: 15px;&quot;&gt;D2&lt;/font&gt;&lt;/b&gt;" style="edgeLabel;html=1;align=center;verticalAlign=middle;resizable=0;points=[];fontSize=15;" vertex="1" connectable="0" parent="bFZ082iqQ71JPYvCp7bj-529">
          <mxGeometry x="-0.0533" y="1" relative="1" as="geometry">
            <mxPoint x="-4" y="-5" as="offset" />
          </mxGeometry>
        </mxCell>
        <mxCell id="bFZ082iqQ71JPYvCp7bj-531" style="edgeStyle=orthogonalEdgeStyle;rounded=0;orthogonalLoop=1;jettySize=auto;html=1;startArrow=classic;startFill=1;endArrow=none;endFill=0;" edge="1" parent="1">
          <mxGeometry relative="1" as="geometry">
            <mxPoint x="1187" y="658" as="targetPoint" />
            <mxPoint x="1167" y="720" as="sourcePoint" />
          </mxGeometry>
        </mxCell>
        <mxCell id="bFZ082iqQ71JPYvCp7bj-532" value="Div_nMul" style="edgeLabel;html=1;align=center;verticalAlign=middle;resizable=0;points=[];rotation=-90;fontSize=11;fontStyle=1" vertex="1" connectable="0" parent="bFZ082iqQ71JPYvCp7bj-531">
          <mxGeometry x="0.2413" relative="1" as="geometry">
            <mxPoint y="5" as="offset" />
          </mxGeometry>
        </mxCell>
        <mxCell id="bFZ082iqQ71JPYvCp7bj-534" style="edgeStyle=orthogonalEdgeStyle;rounded=0;orthogonalLoop=1;jettySize=auto;html=1;startArrow=classic;startFill=1;endArrow=none;endFill=0;" edge="1" parent="1">
          <mxGeometry relative="1" as="geometry">
            <mxPoint x="1047" y="723" as="targetPoint" />
            <mxPoint x="1087" y="723" as="sourcePoint" />
          </mxGeometry>
        </mxCell>
        <mxCell id="bFZ082iqQ71JPYvCp7bj-535" value="&lt;font style=&quot;font-size: 15px;&quot;&gt;B2&lt;/font&gt;" style="edgeLabel;html=1;align=center;verticalAlign=middle;resizable=0;points=[];fontStyle=1" vertex="1" connectable="0" parent="bFZ082iqQ71JPYvCp7bj-534">
          <mxGeometry x="-0.0593" y="-1" relative="1" as="geometry">
            <mxPoint x="-6" as="offset" />
          </mxGeometry>
        </mxCell>
        <mxCell id="bFZ082iqQ71JPYvCp7bj-536" style="edgeStyle=orthogonalEdgeStyle;rounded=0;orthogonalLoop=1;jettySize=auto;html=1;startArrow=classic;startFill=1;endArrow=none;endFill=0;" edge="1" parent="1" source="bFZ082iqQ71JPYvCp7bj-553">
          <mxGeometry relative="1" as="geometry">
            <mxPoint x="1227" y="743" as="targetPoint" />
          </mxGeometry>
        </mxCell>
        <mxCell id="bFZ082iqQ71JPYvCp7bj-537" value="&lt;font style=&quot;font-size: 15px;&quot;&gt;Q3&lt;/font&gt;" style="edgeLabel;html=1;align=center;verticalAlign=middle;resizable=0;points=[];fontStyle=1" vertex="1" connectable="0" parent="bFZ082iqQ71JPYvCp7bj-536">
          <mxGeometry x="0.0581" y="-1" relative="1" as="geometry">
            <mxPoint x="-2" as="offset" />
          </mxGeometry>
        </mxCell>
        <mxCell id="bFZ082iqQ71JPYvCp7bj-538" style="rounded=0;orthogonalLoop=1;jettySize=auto;html=1;exitX=0;exitY=0;exitDx=0;exitDy=0;startArrow=classic;startFill=1;endArrow=none;endFill=0;" edge="1" parent="1" source="bFZ082iqQ71JPYvCp7bj-553">
          <mxGeometry relative="1" as="geometry">
            <mxPoint x="1217" y="653" as="targetPoint" />
          </mxGeometry>
        </mxCell>
        <mxCell id="bFZ082iqQ71JPYvCp7bj-539" value="&lt;b style=&quot;font-size: 15px;&quot;&gt;&lt;font style=&quot;font-size: 15px;&quot;&gt;D1&lt;/font&gt;&lt;/b&gt;" style="edgeLabel;html=1;align=center;verticalAlign=middle;resizable=0;points=[];fontSize=15;" vertex="1" connectable="0" parent="bFZ082iqQ71JPYvCp7bj-538">
          <mxGeometry x="-0.0533" y="1" relative="1" as="geometry">
            <mxPoint x="-4" y="-5" as="offset" />
          </mxGeometry>
        </mxCell>
        <mxCell id="bFZ082iqQ71JPYvCp7bj-540" style="edgeStyle=orthogonalEdgeStyle;rounded=0;orthogonalLoop=1;jettySize=auto;html=1;startArrow=classic;startFill=1;endArrow=none;endFill=0;" edge="1" parent="1">
          <mxGeometry relative="1" as="geometry">
            <mxPoint x="1367" y="658" as="targetPoint" />
            <mxPoint x="1347" y="720" as="sourcePoint" />
          </mxGeometry>
        </mxCell>
        <mxCell id="bFZ082iqQ71JPYvCp7bj-541" value="Div_nMul" style="edgeLabel;html=1;align=center;verticalAlign=middle;resizable=0;points=[];rotation=-90;fontSize=11;fontStyle=1" vertex="1" connectable="0" parent="bFZ082iqQ71JPYvCp7bj-540">
          <mxGeometry x="0.2413" relative="1" as="geometry">
            <mxPoint y="7" as="offset" />
          </mxGeometry>
        </mxCell>
        <mxCell id="bFZ082iqQ71JPYvCp7bj-543" style="edgeStyle=orthogonalEdgeStyle;rounded=0;orthogonalLoop=1;jettySize=auto;html=1;entryX=1;entryY=0.75;entryDx=0;entryDy=0;exitX=0;exitY=0.75;exitDx=0;exitDy=0;" edge="1" parent="1">
          <mxGeometry relative="1" as="geometry">
            <mxPoint x="1267" y="768" as="sourcePoint" />
            <mxPoint x="1167" y="768" as="targetPoint" />
          </mxGeometry>
        </mxCell>
        <mxCell id="bFZ082iqQ71JPYvCp7bj-544" style="edgeStyle=orthogonalEdgeStyle;rounded=0;orthogonalLoop=1;jettySize=auto;html=1;startArrow=classic;startFill=1;endArrow=none;endFill=0;" edge="1" parent="1">
          <mxGeometry relative="1" as="geometry">
            <mxPoint x="1227" y="723" as="targetPoint" />
            <mxPoint x="1267" y="723" as="sourcePoint" />
          </mxGeometry>
        </mxCell>
        <mxCell id="bFZ082iqQ71JPYvCp7bj-545" value="&lt;font style=&quot;font-size: 15px;&quot;&gt;B2&lt;/font&gt;" style="edgeLabel;html=1;align=center;verticalAlign=middle;resizable=0;points=[];fontStyle=1" vertex="1" connectable="0" parent="bFZ082iqQ71JPYvCp7bj-544">
          <mxGeometry x="-0.0593" y="-1" relative="1" as="geometry">
            <mxPoint x="-6" as="offset" />
          </mxGeometry>
        </mxCell>
        <mxCell id="bFZ082iqQ71JPYvCp7bj-546" value="" style="group" vertex="1" connectable="0" parent="1">
          <mxGeometry x="1072" y="703" width="117" height="80" as="geometry" />
        </mxCell>
        <mxCell id="bFZ082iqQ71JPYvCp7bj-549" value="&lt;b&gt;&lt;font style=&quot;font-size: 19px;&quot;&gt;Cell 1&lt;/font&gt;&lt;/b&gt;" style="rounded=0;whiteSpace=wrap;html=1;strokeWidth=2;" vertex="1" parent="bFZ082iqQ71JPYvCp7bj-546">
          <mxGeometry x="15" width="80" height="80" as="geometry" />
        </mxCell>
        <mxCell id="bFZ082iqQ71JPYvCp7bj-550" value="&lt;font style=&quot;font-size: 8px;&quot;&gt;Cout&lt;/font&gt;" style="text;html=1;strokeColor=none;fillColor=none;align=center;verticalAlign=middle;whiteSpace=wrap;rounded=0;movable=0;resizable=0;rotatable=0;deletable=0;editable=0;locked=1;connectable=0;" vertex="1" parent="bFZ082iqQ71JPYvCp7bj-546">
          <mxGeometry x="15" y="49" width="23" height="30" as="geometry" />
        </mxCell>
        <mxCell id="bFZ082iqQ71JPYvCp7bj-551" value="&lt;font style=&quot;font-size: 8px;&quot;&gt;Cin&lt;/font&gt;" style="text;html=1;strokeColor=none;fillColor=none;align=center;verticalAlign=middle;whiteSpace=wrap;rounded=0;movable=0;resizable=0;rotatable=0;deletable=0;editable=0;locked=1;connectable=0;" vertex="1" parent="bFZ082iqQ71JPYvCp7bj-546">
          <mxGeometry x="70" y="49" width="25" height="30" as="geometry" />
        </mxCell>
        <mxCell id="bFZ082iqQ71JPYvCp7bj-552" value="" style="group" vertex="1" connectable="0" parent="1">
          <mxGeometry x="1249" y="703" width="117" height="80" as="geometry" />
        </mxCell>
        <mxCell id="bFZ082iqQ71JPYvCp7bj-553" value="&lt;b&gt;&lt;font style=&quot;font-size: 19px;&quot;&gt;Cell 1&lt;/font&gt;&lt;/b&gt;" style="rounded=0;whiteSpace=wrap;html=1;strokeWidth=2;" vertex="1" parent="bFZ082iqQ71JPYvCp7bj-552">
          <mxGeometry x="18" width="80" height="80" as="geometry" />
        </mxCell>
        <mxCell id="bFZ082iqQ71JPYvCp7bj-554" value="&lt;font style=&quot;font-size: 8px;&quot;&gt;Cout&lt;/font&gt;" style="text;html=1;strokeColor=none;fillColor=none;align=center;verticalAlign=middle;whiteSpace=wrap;rounded=0;" vertex="1" parent="bFZ082iqQ71JPYvCp7bj-552">
          <mxGeometry y="48" width="60" height="30" as="geometry" />
        </mxCell>
        <mxCell id="bFZ082iqQ71JPYvCp7bj-555" value="&lt;font style=&quot;font-size: 8px;&quot;&gt;Cin&lt;/font&gt;" style="text;html=1;strokeColor=none;fillColor=none;align=center;verticalAlign=middle;whiteSpace=wrap;rounded=0;" vertex="1" parent="bFZ082iqQ71JPYvCp7bj-552">
          <mxGeometry x="57" y="48" width="60" height="30" as="geometry" />
        </mxCell>
        <mxCell id="bFZ082iqQ71JPYvCp7bj-556" style="edgeStyle=orthogonalEdgeStyle;rounded=0;orthogonalLoop=1;jettySize=auto;html=1;startArrow=classic;startFill=1;endArrow=none;endFill=0;" edge="1" parent="1" source="bFZ082iqQ71JPYvCp7bj-570">
          <mxGeometry relative="1" as="geometry">
            <mxPoint x="1407" y="743" as="targetPoint" />
          </mxGeometry>
        </mxCell>
        <mxCell id="bFZ082iqQ71JPYvCp7bj-557" value="&lt;font style=&quot;font-size: 15px;&quot;&gt;Q5&lt;/font&gt;" style="edgeLabel;html=1;align=center;verticalAlign=middle;resizable=0;points=[];fontStyle=1" vertex="1" connectable="0" parent="bFZ082iqQ71JPYvCp7bj-556">
          <mxGeometry x="0.0581" y="-1" relative="1" as="geometry">
            <mxPoint x="-2" as="offset" />
          </mxGeometry>
        </mxCell>
        <mxCell id="bFZ082iqQ71JPYvCp7bj-558" style="rounded=0;orthogonalLoop=1;jettySize=auto;html=1;exitX=0;exitY=0;exitDx=0;exitDy=0;startArrow=classic;startFill=1;endArrow=none;endFill=0;" edge="1" parent="1" source="bFZ082iqQ71JPYvCp7bj-570">
          <mxGeometry relative="1" as="geometry">
            <mxPoint x="1397" y="653" as="targetPoint" />
          </mxGeometry>
        </mxCell>
        <mxCell id="bFZ082iqQ71JPYvCp7bj-559" value="&lt;b style=&quot;font-size: 15px;&quot;&gt;&lt;font style=&quot;font-size: 15px;&quot;&gt;D0&lt;/font&gt;&lt;/b&gt;" style="edgeLabel;html=1;align=center;verticalAlign=middle;resizable=0;points=[];fontSize=15;" vertex="1" connectable="0" parent="bFZ082iqQ71JPYvCp7bj-558">
          <mxGeometry x="-0.0533" y="1" relative="1" as="geometry">
            <mxPoint x="-4" y="-5" as="offset" />
          </mxGeometry>
        </mxCell>
        <mxCell id="bFZ082iqQ71JPYvCp7bj-560" style="edgeStyle=orthogonalEdgeStyle;rounded=0;orthogonalLoop=1;jettySize=auto;html=1;startArrow=classic;startFill=1;endArrow=none;endFill=0;exitX=0.5;exitY=0;exitDx=0;exitDy=0;" edge="1" parent="1" source="bFZ082iqQ71JPYvCp7bj-570">
          <mxGeometry relative="1" as="geometry">
            <mxPoint x="1770" y="70" as="targetPoint" />
            <Array as="points">
              <mxPoint x="1487" y="670" />
              <mxPoint x="1771" y="670" />
              <mxPoint x="1771" y="70" />
            </Array>
          </mxGeometry>
        </mxCell>
        <mxCell id="bFZ082iqQ71JPYvCp7bj-561" style="edgeStyle=orthogonalEdgeStyle;rounded=0;orthogonalLoop=1;jettySize=auto;html=1;entryX=1;entryY=0.75;entryDx=0;entryDy=0;exitX=0;exitY=0.75;exitDx=0;exitDy=0;" edge="1" parent="1">
          <mxGeometry relative="1" as="geometry">
            <mxPoint x="1447" y="768" as="sourcePoint" />
            <mxPoint x="1347" y="768" as="targetPoint" />
          </mxGeometry>
        </mxCell>
        <mxCell id="bFZ082iqQ71JPYvCp7bj-562" style="edgeStyle=orthogonalEdgeStyle;rounded=0;orthogonalLoop=1;jettySize=auto;html=1;startArrow=classic;startFill=1;endArrow=none;endFill=0;" edge="1" parent="1">
          <mxGeometry relative="1" as="geometry">
            <mxPoint x="1407" y="723" as="targetPoint" />
            <mxPoint x="1447" y="723" as="sourcePoint" />
          </mxGeometry>
        </mxCell>
        <mxCell id="bFZ082iqQ71JPYvCp7bj-563" value="&lt;font style=&quot;font-size: 15px;&quot;&gt;B2&lt;/font&gt;" style="edgeLabel;html=1;align=center;verticalAlign=middle;resizable=0;points=[];fontStyle=1" vertex="1" connectable="0" parent="bFZ082iqQ71JPYvCp7bj-562">
          <mxGeometry x="-0.0593" y="-1" relative="1" as="geometry">
            <mxPoint x="-6" as="offset" />
          </mxGeometry>
        </mxCell>
        <mxCell id="bFZ082iqQ71JPYvCp7bj-564" value="&lt;b&gt;&lt;font style=&quot;font-size: 15px;&quot;&gt;A2&lt;/font&gt;&lt;/b&gt;" style="text;html=1;strokeColor=none;fillColor=none;align=center;verticalAlign=middle;whiteSpace=wrap;rounded=0;" vertex="1" parent="1">
          <mxGeometry x="1470" y="630" width="42.5" height="30" as="geometry" />
        </mxCell>
        <mxCell id="bFZ082iqQ71JPYvCp7bj-565" style="edgeStyle=orthogonalEdgeStyle;rounded=0;orthogonalLoop=1;jettySize=auto;html=1;startArrow=classic;startFill=1;endArrow=none;endFill=0;" edge="1" parent="1">
          <mxGeometry relative="1" as="geometry">
            <mxPoint x="1587" y="722" as="targetPoint" />
            <mxPoint x="1527" y="722" as="sourcePoint" />
          </mxGeometry>
        </mxCell>
        <mxCell id="bFZ082iqQ71JPYvCp7bj-566" value="Div_nMul" style="edgeLabel;html=1;align=center;verticalAlign=middle;resizable=0;points=[];" vertex="1" connectable="0" parent="bFZ082iqQ71JPYvCp7bj-565">
          <mxGeometry x="-0.1605" relative="1" as="geometry">
            <mxPoint x="15" as="offset" />
          </mxGeometry>
        </mxCell>
        <mxCell id="bFZ082iqQ71JPYvCp7bj-567" style="edgeStyle=orthogonalEdgeStyle;rounded=0;orthogonalLoop=1;jettySize=auto;html=1;startArrow=classic;startFill=1;endArrow=none;endFill=0;" edge="1" parent="1">
          <mxGeometry relative="1" as="geometry">
            <mxPoint x="1577" y="768" as="targetPoint" />
            <mxPoint x="1527" y="768" as="sourcePoint" />
          </mxGeometry>
        </mxCell>
        <mxCell id="bFZ082iqQ71JPYvCp7bj-568" value="&lt;b&gt;&lt;font style=&quot;font-size: 15px;&quot;&gt;Q3&lt;/font&gt;&lt;/b&gt;" style="edgeLabel;html=1;align=center;verticalAlign=middle;resizable=0;points=[];" vertex="1" connectable="0" parent="bFZ082iqQ71JPYvCp7bj-567">
          <mxGeometry x="0.2226" relative="1" as="geometry">
            <mxPoint x="-3" y="-1" as="offset" />
          </mxGeometry>
        </mxCell>
        <mxCell id="bFZ082iqQ71JPYvCp7bj-569" value="" style="group" vertex="1" connectable="0" parent="1">
          <mxGeometry x="1429" y="703" width="117" height="80" as="geometry" />
        </mxCell>
        <mxCell id="bFZ082iqQ71JPYvCp7bj-570" value="&lt;b&gt;&lt;font style=&quot;font-size: 19px;&quot;&gt;Cell 2&lt;/font&gt;&lt;/b&gt;" style="rounded=0;whiteSpace=wrap;html=1;strokeWidth=2;" vertex="1" parent="bFZ082iqQ71JPYvCp7bj-569">
          <mxGeometry x="18" width="80" height="80" as="geometry" />
        </mxCell>
        <mxCell id="bFZ082iqQ71JPYvCp7bj-571" value="&lt;font style=&quot;font-size: 8px;&quot;&gt;Cout&lt;/font&gt;" style="text;html=1;strokeColor=none;fillColor=none;align=center;verticalAlign=middle;whiteSpace=wrap;rounded=0;" vertex="1" parent="bFZ082iqQ71JPYvCp7bj-569">
          <mxGeometry y="48" width="60" height="30" as="geometry" />
        </mxCell>
        <mxCell id="bFZ082iqQ71JPYvCp7bj-572" value="&lt;font style=&quot;font-size: 8px;&quot;&gt;Cin&lt;/font&gt;" style="text;html=1;strokeColor=none;fillColor=none;align=center;verticalAlign=middle;whiteSpace=wrap;rounded=0;" vertex="1" parent="bFZ082iqQ71JPYvCp7bj-569">
          <mxGeometry x="57" y="48" width="60" height="30" as="geometry" />
        </mxCell>
        <mxCell id="bFZ082iqQ71JPYvCp7bj-573" style="edgeStyle=orthogonalEdgeStyle;rounded=0;orthogonalLoop=1;jettySize=auto;html=1;entryX=0.5;entryY=0;entryDx=0;entryDy=0;" edge="1" parent="1" source="bFZ082iqQ71JPYvCp7bj-505" target="bFZ082iqQ71JPYvCp7bj-549">
          <mxGeometry relative="1" as="geometry" />
        </mxCell>
        <mxCell id="bFZ082iqQ71JPYvCp7bj-574" style="edgeStyle=orthogonalEdgeStyle;rounded=0;orthogonalLoop=1;jettySize=auto;html=1;entryX=0.5;entryY=0;entryDx=0;entryDy=0;" edge="1" parent="1" source="bFZ082iqQ71JPYvCp7bj-524" target="bFZ082iqQ71JPYvCp7bj-553">
          <mxGeometry relative="1" as="geometry" />
        </mxCell>
        <mxCell id="bFZ082iqQ71JPYvCp7bj-575" value="&lt;b&gt;&lt;font style=&quot;font-size: 15px;&quot;&gt;A3&lt;/font&gt;&lt;/b&gt;" style="text;html=1;strokeColor=none;fillColor=none;align=center;verticalAlign=middle;whiteSpace=wrap;rounded=0;" vertex="1" parent="1">
          <mxGeometry x="1290.5" y="480" width="34" height="30" as="geometry" />
        </mxCell>
        <mxCell id="bFZ082iqQ71JPYvCp7bj-577" style="edgeStyle=orthogonalEdgeStyle;rounded=0;orthogonalLoop=1;jettySize=auto;html=1;entryX=0.5;entryY=0;entryDx=0;entryDy=0;" edge="1" parent="1" source="bFZ082iqQ71JPYvCp7bj-275" target="bFZ082iqQ71JPYvCp7bj-505">
          <mxGeometry relative="1" as="geometry" />
        </mxCell>
        <mxCell id="bFZ082iqQ71JPYvCp7bj-578" style="edgeStyle=orthogonalEdgeStyle;rounded=0;orthogonalLoop=1;jettySize=auto;html=1;entryX=0.5;entryY=0;entryDx=0;entryDy=0;" edge="1" parent="1" source="bFZ082iqQ71JPYvCp7bj-256" target="bFZ082iqQ71JPYvCp7bj-501">
          <mxGeometry relative="1" as="geometry" />
        </mxCell>
        <mxCell id="bFZ082iqQ71JPYvCp7bj-584" style="edgeStyle=orthogonalEdgeStyle;rounded=0;orthogonalLoop=1;jettySize=auto;html=1;startArrow=classic;startFill=1;endArrow=none;endFill=0;" edge="1" parent="1" source="bFZ082iqQ71JPYvCp7bj-603">
          <mxGeometry relative="1" as="geometry">
            <mxPoint x="1227" y="888" as="targetPoint" />
          </mxGeometry>
        </mxCell>
        <mxCell id="bFZ082iqQ71JPYvCp7bj-585" value="&lt;font style=&quot;font-size: 15px;&quot;&gt;Q2&lt;/font&gt;" style="edgeLabel;html=1;align=center;verticalAlign=middle;resizable=0;points=[];fontStyle=1" vertex="1" connectable="0" parent="bFZ082iqQ71JPYvCp7bj-584">
          <mxGeometry x="0.0581" y="-1" relative="1" as="geometry">
            <mxPoint x="-2" as="offset" />
          </mxGeometry>
        </mxCell>
        <mxCell id="bFZ082iqQ71JPYvCp7bj-586" style="rounded=0;orthogonalLoop=1;jettySize=auto;html=1;exitX=0;exitY=0;exitDx=0;exitDy=0;startArrow=classic;startFill=1;endArrow=none;endFill=0;" edge="1" parent="1" source="bFZ082iqQ71JPYvCp7bj-603">
          <mxGeometry relative="1" as="geometry">
            <mxPoint x="1217" y="798" as="targetPoint" />
          </mxGeometry>
        </mxCell>
        <mxCell id="bFZ082iqQ71JPYvCp7bj-587" value="&lt;b style=&quot;font-size: 15px;&quot;&gt;&lt;font style=&quot;font-size: 15px;&quot;&gt;D2&lt;/font&gt;&lt;/b&gt;" style="edgeLabel;html=1;align=center;verticalAlign=middle;resizable=0;points=[];fontSize=15;" vertex="1" connectable="0" parent="bFZ082iqQ71JPYvCp7bj-586">
          <mxGeometry x="-0.0533" y="1" relative="1" as="geometry">
            <mxPoint x="-4" y="-5" as="offset" />
          </mxGeometry>
        </mxCell>
        <mxCell id="bFZ082iqQ71JPYvCp7bj-588" style="edgeStyle=orthogonalEdgeStyle;rounded=0;orthogonalLoop=1;jettySize=auto;html=1;startArrow=classic;startFill=1;endArrow=none;endFill=0;" edge="1" parent="1">
          <mxGeometry relative="1" as="geometry">
            <mxPoint x="1367" y="798" as="targetPoint" />
            <mxPoint x="1347" y="865" as="sourcePoint" />
          </mxGeometry>
        </mxCell>
        <mxCell id="bFZ082iqQ71JPYvCp7bj-589" value="Div_nMul" style="edgeLabel;html=1;align=center;verticalAlign=middle;resizable=0;points=[];rotation=-90;fontSize=11;fontStyle=0" vertex="1" connectable="0" parent="bFZ082iqQ71JPYvCp7bj-588">
          <mxGeometry x="0.2413" relative="1" as="geometry">
            <mxPoint y="4" as="offset" />
          </mxGeometry>
        </mxCell>
        <mxCell id="bFZ082iqQ71JPYvCp7bj-591" style="edgeStyle=orthogonalEdgeStyle;rounded=0;orthogonalLoop=1;jettySize=auto;html=1;startArrow=classic;startFill=1;endArrow=none;endFill=0;" edge="1" parent="1">
          <mxGeometry relative="1" as="geometry">
            <mxPoint x="1227" y="868" as="targetPoint" />
            <mxPoint x="1267" y="868" as="sourcePoint" />
          </mxGeometry>
        </mxCell>
        <mxCell id="bFZ082iqQ71JPYvCp7bj-592" value="&lt;font style=&quot;font-size: 15px;&quot;&gt;B0&lt;/font&gt;" style="edgeLabel;html=1;align=center;verticalAlign=middle;resizable=0;points=[];fontStyle=1" vertex="1" connectable="0" parent="bFZ082iqQ71JPYvCp7bj-591">
          <mxGeometry x="-0.0593" y="-1" relative="1" as="geometry">
            <mxPoint x="-6" as="offset" />
          </mxGeometry>
        </mxCell>
        <mxCell id="bFZ082iqQ71JPYvCp7bj-593" style="edgeStyle=orthogonalEdgeStyle;rounded=0;orthogonalLoop=1;jettySize=auto;html=1;startArrow=classic;startFill=1;endArrow=none;endFill=0;" edge="1" parent="1" source="bFZ082iqQ71JPYvCp7bj-607">
          <mxGeometry relative="1" as="geometry">
            <mxPoint x="1407" y="888" as="targetPoint" />
          </mxGeometry>
        </mxCell>
        <mxCell id="bFZ082iqQ71JPYvCp7bj-594" value="&lt;font style=&quot;font-size: 15px;&quot;&gt;Q2&lt;/font&gt;" style="edgeLabel;html=1;align=center;verticalAlign=middle;resizable=0;points=[];fontStyle=1" vertex="1" connectable="0" parent="bFZ082iqQ71JPYvCp7bj-593">
          <mxGeometry x="0.0581" y="-1" relative="1" as="geometry">
            <mxPoint x="-2" as="offset" />
          </mxGeometry>
        </mxCell>
        <mxCell id="bFZ082iqQ71JPYvCp7bj-595" style="rounded=0;orthogonalLoop=1;jettySize=auto;html=1;exitX=0;exitY=0;exitDx=0;exitDy=0;startArrow=classic;startFill=1;endArrow=none;endFill=0;" edge="1" parent="1" source="bFZ082iqQ71JPYvCp7bj-607">
          <mxGeometry relative="1" as="geometry">
            <mxPoint x="1397" y="798" as="targetPoint" />
          </mxGeometry>
        </mxCell>
        <mxCell id="bFZ082iqQ71JPYvCp7bj-596" value="&lt;b style=&quot;font-size: 15px;&quot;&gt;&lt;font style=&quot;font-size: 15px;&quot;&gt;D1&lt;/font&gt;&lt;/b&gt;" style="edgeLabel;html=1;align=center;verticalAlign=middle;resizable=0;points=[];fontSize=15;" vertex="1" connectable="0" parent="bFZ082iqQ71JPYvCp7bj-595">
          <mxGeometry x="-0.0533" y="1" relative="1" as="geometry">
            <mxPoint x="-4" y="-5" as="offset" />
          </mxGeometry>
        </mxCell>
        <mxCell id="bFZ082iqQ71JPYvCp7bj-597" style="edgeStyle=orthogonalEdgeStyle;rounded=0;orthogonalLoop=1;jettySize=auto;html=1;startArrow=classic;startFill=1;endArrow=none;endFill=0;" edge="1" parent="1">
          <mxGeometry relative="1" as="geometry">
            <mxPoint x="1547" y="798" as="targetPoint" />
            <mxPoint x="1527" y="865" as="sourcePoint" />
          </mxGeometry>
        </mxCell>
        <mxCell id="bFZ082iqQ71JPYvCp7bj-598" value="Div_nMul" style="edgeLabel;html=1;align=center;verticalAlign=middle;resizable=0;points=[];rotation=-90;fontSize=11;fontStyle=0" vertex="1" connectable="0" parent="bFZ082iqQ71JPYvCp7bj-597">
          <mxGeometry x="0.2413" relative="1" as="geometry">
            <mxPoint y="4" as="offset" />
          </mxGeometry>
        </mxCell>
        <mxCell id="bFZ082iqQ71JPYvCp7bj-599" style="edgeStyle=orthogonalEdgeStyle;rounded=0;orthogonalLoop=1;jettySize=auto;html=1;entryX=1;entryY=0.75;entryDx=0;entryDy=0;exitX=0;exitY=0.75;exitDx=0;exitDy=0;" edge="1" parent="1">
          <mxGeometry relative="1" as="geometry">
            <mxPoint x="1447" y="913" as="sourcePoint" />
            <mxPoint x="1347" y="913" as="targetPoint" />
          </mxGeometry>
        </mxCell>
        <mxCell id="bFZ082iqQ71JPYvCp7bj-600" style="edgeStyle=orthogonalEdgeStyle;rounded=0;orthogonalLoop=1;jettySize=auto;html=1;startArrow=classic;startFill=1;endArrow=none;endFill=0;" edge="1" parent="1">
          <mxGeometry relative="1" as="geometry">
            <mxPoint x="1407" y="868" as="targetPoint" />
            <mxPoint x="1447" y="868" as="sourcePoint" />
          </mxGeometry>
        </mxCell>
        <mxCell id="bFZ082iqQ71JPYvCp7bj-601" value="&lt;font style=&quot;font-size: 15px;&quot;&gt;B0&lt;/font&gt;" style="edgeLabel;html=1;align=center;verticalAlign=middle;resizable=0;points=[];fontStyle=1" vertex="1" connectable="0" parent="bFZ082iqQ71JPYvCp7bj-600">
          <mxGeometry x="-0.0593" y="-1" relative="1" as="geometry">
            <mxPoint x="-6" as="offset" />
          </mxGeometry>
        </mxCell>
        <mxCell id="bFZ082iqQ71JPYvCp7bj-602" value="" style="group" vertex="1" connectable="0" parent="1">
          <mxGeometry x="1252" y="848" width="117" height="80" as="geometry" />
        </mxCell>
        <mxCell id="bFZ082iqQ71JPYvCp7bj-603" value="&lt;b&gt;&lt;font style=&quot;font-size: 19px;&quot;&gt;Cell 1&lt;/font&gt;&lt;/b&gt;" style="rounded=0;whiteSpace=wrap;html=1;strokeWidth=2;" vertex="1" parent="bFZ082iqQ71JPYvCp7bj-602">
          <mxGeometry x="15" width="80" height="80" as="geometry" />
        </mxCell>
        <mxCell id="bFZ082iqQ71JPYvCp7bj-604" value="&lt;font style=&quot;font-size: 8px;&quot;&gt;Cout&lt;/font&gt;" style="text;html=1;strokeColor=none;fillColor=none;align=center;verticalAlign=middle;whiteSpace=wrap;rounded=0;movable=0;resizable=0;rotatable=0;deletable=0;editable=0;locked=1;connectable=0;" vertex="1" parent="bFZ082iqQ71JPYvCp7bj-602">
          <mxGeometry x="20" y="49" width="20" height="30" as="geometry" />
        </mxCell>
        <mxCell id="bFZ082iqQ71JPYvCp7bj-605" value="&lt;font style=&quot;font-size: 8px;&quot;&gt;Cin&lt;/font&gt;" style="text;html=1;strokeColor=none;fillColor=none;align=center;verticalAlign=middle;whiteSpace=wrap;rounded=0;movable=0;resizable=0;rotatable=0;deletable=0;editable=0;locked=1;connectable=0;" vertex="1" parent="bFZ082iqQ71JPYvCp7bj-602">
          <mxGeometry x="65" y="49" width="25" height="30" as="geometry" />
        </mxCell>
        <mxCell id="bFZ082iqQ71JPYvCp7bj-606" value="" style="group" vertex="1" connectable="0" parent="1">
          <mxGeometry x="1429" y="848" width="117" height="80" as="geometry" />
        </mxCell>
        <mxCell id="bFZ082iqQ71JPYvCp7bj-607" value="&lt;b&gt;&lt;font style=&quot;font-size: 19px;&quot;&gt;Cell 1&lt;/font&gt;&lt;/b&gt;" style="rounded=0;whiteSpace=wrap;html=1;strokeWidth=2;" vertex="1" parent="bFZ082iqQ71JPYvCp7bj-606">
          <mxGeometry x="18" width="80" height="80" as="geometry" />
        </mxCell>
        <mxCell id="bFZ082iqQ71JPYvCp7bj-608" value="&lt;font style=&quot;font-size: 8px;&quot;&gt;Cout&lt;/font&gt;" style="text;html=1;strokeColor=none;fillColor=none;align=center;verticalAlign=middle;whiteSpace=wrap;rounded=0;" vertex="1" parent="bFZ082iqQ71JPYvCp7bj-606">
          <mxGeometry y="48" width="60" height="30" as="geometry" />
        </mxCell>
        <mxCell id="bFZ082iqQ71JPYvCp7bj-609" value="&lt;font style=&quot;font-size: 8px;&quot;&gt;Cin&lt;/font&gt;" style="text;html=1;strokeColor=none;fillColor=none;align=center;verticalAlign=middle;whiteSpace=wrap;rounded=0;" vertex="1" parent="bFZ082iqQ71JPYvCp7bj-606">
          <mxGeometry x="57" y="48" width="60" height="30" as="geometry" />
        </mxCell>
        <mxCell id="bFZ082iqQ71JPYvCp7bj-610" style="edgeStyle=orthogonalEdgeStyle;rounded=0;orthogonalLoop=1;jettySize=auto;html=1;startArrow=classic;startFill=1;endArrow=none;endFill=0;" edge="1" parent="1" source="bFZ082iqQ71JPYvCp7bj-624">
          <mxGeometry relative="1" as="geometry">
            <mxPoint x="1587" y="888" as="targetPoint" />
          </mxGeometry>
        </mxCell>
        <mxCell id="bFZ082iqQ71JPYvCp7bj-611" value="&lt;span style=&quot;font-size: 15px;&quot;&gt;Q2&lt;/span&gt;" style="edgeLabel;html=1;align=center;verticalAlign=middle;resizable=0;points=[];fontStyle=1" vertex="1" connectable="0" parent="bFZ082iqQ71JPYvCp7bj-610">
          <mxGeometry x="0.0581" y="-1" relative="1" as="geometry">
            <mxPoint x="-2" as="offset" />
          </mxGeometry>
        </mxCell>
        <mxCell id="bFZ082iqQ71JPYvCp7bj-612" style="rounded=0;orthogonalLoop=1;jettySize=auto;html=1;exitX=0;exitY=0;exitDx=0;exitDy=0;startArrow=classic;startFill=1;endArrow=none;endFill=0;" edge="1" parent="1" source="bFZ082iqQ71JPYvCp7bj-624">
          <mxGeometry relative="1" as="geometry">
            <mxPoint x="1577" y="798" as="targetPoint" />
          </mxGeometry>
        </mxCell>
        <mxCell id="bFZ082iqQ71JPYvCp7bj-613" value="&lt;b style=&quot;font-size: 15px;&quot;&gt;&lt;font style=&quot;font-size: 15px;&quot;&gt;D0&lt;/font&gt;&lt;/b&gt;" style="edgeLabel;html=1;align=center;verticalAlign=middle;resizable=0;points=[];fontSize=15;" vertex="1" connectable="0" parent="bFZ082iqQ71JPYvCp7bj-612">
          <mxGeometry x="-0.0533" y="1" relative="1" as="geometry">
            <mxPoint x="-4" y="-5" as="offset" />
          </mxGeometry>
        </mxCell>
        <mxCell id="bFZ082iqQ71JPYvCp7bj-614" style="edgeStyle=orthogonalEdgeStyle;rounded=0;orthogonalLoop=1;jettySize=auto;html=1;startArrow=classic;startFill=1;endArrow=none;endFill=0;exitX=0.5;exitY=0;exitDx=0;exitDy=0;" edge="1" parent="1" source="bFZ082iqQ71JPYvCp7bj-624">
          <mxGeometry relative="1" as="geometry">
            <mxPoint x="1810" y="70" as="targetPoint" />
            <Array as="points">
              <mxPoint x="1667" y="800" />
              <mxPoint x="1810" y="800" />
            </Array>
          </mxGeometry>
        </mxCell>
        <mxCell id="bFZ082iqQ71JPYvCp7bj-615" style="edgeStyle=orthogonalEdgeStyle;rounded=0;orthogonalLoop=1;jettySize=auto;html=1;entryX=1;entryY=0.75;entryDx=0;entryDy=0;exitX=0;exitY=0.75;exitDx=0;exitDy=0;" edge="1" parent="1">
          <mxGeometry relative="1" as="geometry">
            <mxPoint x="1627" y="913" as="sourcePoint" />
            <mxPoint x="1527" y="913" as="targetPoint" />
          </mxGeometry>
        </mxCell>
        <mxCell id="bFZ082iqQ71JPYvCp7bj-616" style="edgeStyle=orthogonalEdgeStyle;rounded=0;orthogonalLoop=1;jettySize=auto;html=1;startArrow=classic;startFill=1;endArrow=none;endFill=0;" edge="1" parent="1">
          <mxGeometry relative="1" as="geometry">
            <mxPoint x="1587" y="868" as="targetPoint" />
            <mxPoint x="1627" y="868" as="sourcePoint" />
          </mxGeometry>
        </mxCell>
        <mxCell id="bFZ082iqQ71JPYvCp7bj-617" value="&lt;font style=&quot;font-size: 15px;&quot;&gt;B0&lt;/font&gt;" style="edgeLabel;html=1;align=center;verticalAlign=middle;resizable=0;points=[];fontStyle=1" vertex="1" connectable="0" parent="bFZ082iqQ71JPYvCp7bj-616">
          <mxGeometry x="-0.0593" y="-1" relative="1" as="geometry">
            <mxPoint x="-6" as="offset" />
          </mxGeometry>
        </mxCell>
        <mxCell id="bFZ082iqQ71JPYvCp7bj-618" value="&lt;b&gt;&lt;font style=&quot;font-size: 15px;&quot;&gt;A5&lt;/font&gt;&lt;/b&gt;" style="text;html=1;strokeColor=none;fillColor=none;align=center;verticalAlign=middle;whiteSpace=wrap;rounded=0;" vertex="1" parent="1">
          <mxGeometry x="1637.5" y="844" width="60" height="30" as="geometry" />
        </mxCell>
        <mxCell id="bFZ082iqQ71JPYvCp7bj-619" style="edgeStyle=orthogonalEdgeStyle;rounded=0;orthogonalLoop=1;jettySize=auto;html=1;startArrow=classic;startFill=1;endArrow=none;endFill=0;" edge="1" parent="1">
          <mxGeometry relative="1" as="geometry">
            <mxPoint x="1767" y="867" as="targetPoint" />
            <mxPoint x="1707" y="867" as="sourcePoint" />
          </mxGeometry>
        </mxCell>
        <mxCell id="bFZ082iqQ71JPYvCp7bj-620" value="Div_nMul" style="edgeLabel;html=1;align=center;verticalAlign=middle;resizable=0;points=[];" vertex="1" connectable="0" parent="bFZ082iqQ71JPYvCp7bj-619">
          <mxGeometry x="-0.1605" relative="1" as="geometry">
            <mxPoint x="15" as="offset" />
          </mxGeometry>
        </mxCell>
        <mxCell id="bFZ082iqQ71JPYvCp7bj-621" style="edgeStyle=orthogonalEdgeStyle;rounded=0;orthogonalLoop=1;jettySize=auto;html=1;startArrow=classic;startFill=1;endArrow=none;endFill=0;" edge="1" parent="1">
          <mxGeometry relative="1" as="geometry">
            <mxPoint x="1757" y="913" as="targetPoint" />
            <mxPoint x="1707" y="913" as="sourcePoint" />
          </mxGeometry>
        </mxCell>
        <mxCell id="bFZ082iqQ71JPYvCp7bj-622" value="&lt;b style=&quot;font-size: 15px;&quot;&gt;Q2&lt;/b&gt;" style="edgeLabel;html=1;align=center;verticalAlign=middle;resizable=0;points=[];fontSize=15;" vertex="1" connectable="0" parent="bFZ082iqQ71JPYvCp7bj-621">
          <mxGeometry x="0.2226" relative="1" as="geometry">
            <mxPoint as="offset" />
          </mxGeometry>
        </mxCell>
        <mxCell id="bFZ082iqQ71JPYvCp7bj-623" value="" style="group" vertex="1" connectable="0" parent="1">
          <mxGeometry x="1609" y="848" width="117" height="80" as="geometry" />
        </mxCell>
        <mxCell id="bFZ082iqQ71JPYvCp7bj-624" value="&lt;b&gt;&lt;font style=&quot;font-size: 19px;&quot;&gt;Cell 2&lt;/font&gt;&lt;/b&gt;" style="rounded=0;whiteSpace=wrap;html=1;strokeWidth=2;" vertex="1" parent="bFZ082iqQ71JPYvCp7bj-623">
          <mxGeometry x="18" width="80" height="80" as="geometry" />
        </mxCell>
        <mxCell id="bFZ082iqQ71JPYvCp7bj-625" value="&lt;font style=&quot;font-size: 8px;&quot;&gt;Cout&lt;/font&gt;" style="text;html=1;strokeColor=none;fillColor=none;align=center;verticalAlign=middle;whiteSpace=wrap;rounded=0;" vertex="1" parent="bFZ082iqQ71JPYvCp7bj-623">
          <mxGeometry y="48" width="60" height="30" as="geometry" />
        </mxCell>
        <mxCell id="bFZ082iqQ71JPYvCp7bj-626" value="&lt;font style=&quot;font-size: 8px;&quot;&gt;Cin&lt;/font&gt;" style="text;html=1;strokeColor=none;fillColor=none;align=center;verticalAlign=middle;whiteSpace=wrap;rounded=0;" vertex="1" parent="bFZ082iqQ71JPYvCp7bj-623">
          <mxGeometry x="57" y="48" width="60" height="30" as="geometry" />
        </mxCell>
        <mxCell id="bFZ082iqQ71JPYvCp7bj-627" style="edgeStyle=orthogonalEdgeStyle;rounded=0;orthogonalLoop=1;jettySize=auto;html=1;startArrow=classic;startFill=1;endArrow=none;endFill=0;" edge="1" parent="1" source="bFZ082iqQ71JPYvCp7bj-649">
          <mxGeometry relative="1" as="geometry">
            <mxPoint x="1407" y="1033" as="targetPoint" />
          </mxGeometry>
        </mxCell>
        <mxCell id="bFZ082iqQ71JPYvCp7bj-628" value="&lt;font style=&quot;font-size: 15px;&quot;&gt;Q1&lt;/font&gt;" style="edgeLabel;html=1;align=center;verticalAlign=middle;resizable=0;points=[];fontStyle=1" vertex="1" connectable="0" parent="bFZ082iqQ71JPYvCp7bj-627">
          <mxGeometry x="0.0581" y="-1" relative="1" as="geometry">
            <mxPoint x="-2" as="offset" />
          </mxGeometry>
        </mxCell>
        <mxCell id="bFZ082iqQ71JPYvCp7bj-629" style="rounded=0;orthogonalLoop=1;jettySize=auto;html=1;exitX=0;exitY=0;exitDx=0;exitDy=0;startArrow=classic;startFill=1;endArrow=none;endFill=0;" edge="1" parent="1" source="bFZ082iqQ71JPYvCp7bj-649">
          <mxGeometry relative="1" as="geometry">
            <mxPoint x="1397" y="943" as="targetPoint" />
          </mxGeometry>
        </mxCell>
        <mxCell id="bFZ082iqQ71JPYvCp7bj-630" value="&lt;b style=&quot;font-size: 15px;&quot;&gt;&lt;font style=&quot;font-size: 15px;&quot;&gt;D2&lt;/font&gt;&lt;/b&gt;" style="edgeLabel;html=1;align=center;verticalAlign=middle;resizable=0;points=[];fontSize=15;" vertex="1" connectable="0" parent="bFZ082iqQ71JPYvCp7bj-629">
          <mxGeometry x="-0.0533" y="1" relative="1" as="geometry">
            <mxPoint x="-4" y="-5" as="offset" />
          </mxGeometry>
        </mxCell>
        <mxCell id="bFZ082iqQ71JPYvCp7bj-631" style="edgeStyle=orthogonalEdgeStyle;rounded=0;orthogonalLoop=1;jettySize=auto;html=1;startArrow=classic;startFill=1;endArrow=none;endFill=0;" edge="1" parent="1">
          <mxGeometry relative="1" as="geometry">
            <mxPoint x="1547" y="948" as="targetPoint" />
            <mxPoint x="1527" y="1010" as="sourcePoint" />
          </mxGeometry>
        </mxCell>
        <mxCell id="bFZ082iqQ71JPYvCp7bj-632" value="Div_nMul" style="edgeLabel;html=1;align=center;verticalAlign=middle;resizable=0;points=[];rotation=-90;fontSize=11;fontStyle=1" vertex="1" connectable="0" parent="bFZ082iqQ71JPYvCp7bj-631">
          <mxGeometry x="0.2413" relative="1" as="geometry">
            <mxPoint y="3" as="offset" />
          </mxGeometry>
        </mxCell>
        <mxCell id="bFZ082iqQ71JPYvCp7bj-634" style="edgeStyle=orthogonalEdgeStyle;rounded=0;orthogonalLoop=1;jettySize=auto;html=1;startArrow=classic;startFill=1;endArrow=none;endFill=0;" edge="1" parent="1">
          <mxGeometry relative="1" as="geometry">
            <mxPoint x="1407" y="1013" as="targetPoint" />
            <mxPoint x="1447" y="1013" as="sourcePoint" />
          </mxGeometry>
        </mxCell>
        <mxCell id="bFZ082iqQ71JPYvCp7bj-635" value="&lt;font style=&quot;font-size: 15px;&quot;&gt;B2&lt;/font&gt;" style="edgeLabel;html=1;align=center;verticalAlign=middle;resizable=0;points=[];fontStyle=1" vertex="1" connectable="0" parent="bFZ082iqQ71JPYvCp7bj-634">
          <mxGeometry x="-0.0593" y="-1" relative="1" as="geometry">
            <mxPoint x="-6" as="offset" />
          </mxGeometry>
        </mxCell>
        <mxCell id="bFZ082iqQ71JPYvCp7bj-636" style="edgeStyle=orthogonalEdgeStyle;rounded=0;orthogonalLoop=1;jettySize=auto;html=1;startArrow=classic;startFill=1;endArrow=none;endFill=0;" edge="1" parent="1" source="bFZ082iqQ71JPYvCp7bj-653">
          <mxGeometry relative="1" as="geometry">
            <mxPoint x="1587" y="1033" as="targetPoint" />
          </mxGeometry>
        </mxCell>
        <mxCell id="bFZ082iqQ71JPYvCp7bj-637" value="&lt;span style=&quot;font-size: 15px;&quot;&gt;Q1&lt;/span&gt;" style="edgeLabel;html=1;align=center;verticalAlign=middle;resizable=0;points=[];fontStyle=1" vertex="1" connectable="0" parent="bFZ082iqQ71JPYvCp7bj-636">
          <mxGeometry x="0.0581" y="-1" relative="1" as="geometry">
            <mxPoint x="-2" as="offset" />
          </mxGeometry>
        </mxCell>
        <mxCell id="bFZ082iqQ71JPYvCp7bj-638" style="rounded=0;orthogonalLoop=1;jettySize=auto;html=1;exitX=0;exitY=0;exitDx=0;exitDy=0;startArrow=classic;startFill=1;endArrow=none;endFill=0;" edge="1" parent="1" source="bFZ082iqQ71JPYvCp7bj-653">
          <mxGeometry relative="1" as="geometry">
            <mxPoint x="1577" y="943" as="targetPoint" />
          </mxGeometry>
        </mxCell>
        <mxCell id="bFZ082iqQ71JPYvCp7bj-639" value="&lt;b style=&quot;font-size: 15px;&quot;&gt;&lt;font style=&quot;font-size: 15px;&quot;&gt;D1&lt;/font&gt;&lt;/b&gt;" style="edgeLabel;html=1;align=center;verticalAlign=middle;resizable=0;points=[];fontSize=15;" vertex="1" connectable="0" parent="bFZ082iqQ71JPYvCp7bj-638">
          <mxGeometry x="-0.0533" y="1" relative="1" as="geometry">
            <mxPoint x="-4" y="-5" as="offset" />
          </mxGeometry>
        </mxCell>
        <mxCell id="bFZ082iqQ71JPYvCp7bj-640" style="edgeStyle=orthogonalEdgeStyle;rounded=0;orthogonalLoop=1;jettySize=auto;html=1;startArrow=classic;startFill=1;endArrow=none;endFill=0;" edge="1" parent="1">
          <mxGeometry relative="1" as="geometry">
            <mxPoint x="1727" y="948" as="targetPoint" />
            <mxPoint x="1707" y="1010" as="sourcePoint" />
          </mxGeometry>
        </mxCell>
        <mxCell id="bFZ082iqQ71JPYvCp7bj-641" value="Div_nMul" style="edgeLabel;html=1;align=center;verticalAlign=middle;resizable=0;points=[];rotation=-90;fontSize=11;fontStyle=1" vertex="1" connectable="0" parent="bFZ082iqQ71JPYvCp7bj-640">
          <mxGeometry x="0.2413" relative="1" as="geometry">
            <mxPoint y="3" as="offset" />
          </mxGeometry>
        </mxCell>
        <mxCell id="bFZ082iqQ71JPYvCp7bj-642" style="edgeStyle=orthogonalEdgeStyle;rounded=0;orthogonalLoop=1;jettySize=auto;html=1;" edge="1" parent="1" source="bFZ082iqQ71JPYvCp7bj-653">
          <mxGeometry relative="1" as="geometry">
            <mxPoint x="1667" y="1120" as="targetPoint" />
          </mxGeometry>
        </mxCell>
        <mxCell id="bFZ082iqQ71JPYvCp7bj-643" style="edgeStyle=orthogonalEdgeStyle;rounded=0;orthogonalLoop=1;jettySize=auto;html=1;entryX=1;entryY=0.75;entryDx=0;entryDy=0;exitX=0;exitY=0.75;exitDx=0;exitDy=0;" edge="1" parent="1">
          <mxGeometry relative="1" as="geometry">
            <mxPoint x="1627" y="1058" as="sourcePoint" />
            <mxPoint x="1527" y="1058" as="targetPoint" />
          </mxGeometry>
        </mxCell>
        <mxCell id="bFZ082iqQ71JPYvCp7bj-644" style="edgeStyle=orthogonalEdgeStyle;rounded=0;orthogonalLoop=1;jettySize=auto;html=1;startArrow=classic;startFill=1;endArrow=none;endFill=0;" edge="1" parent="1">
          <mxGeometry relative="1" as="geometry">
            <mxPoint x="1587" y="1013" as="targetPoint" />
            <mxPoint x="1627" y="1013" as="sourcePoint" />
          </mxGeometry>
        </mxCell>
        <mxCell id="bFZ082iqQ71JPYvCp7bj-645" value="&lt;font style=&quot;font-size: 15px;&quot;&gt;B2&lt;/font&gt;" style="edgeLabel;html=1;align=center;verticalAlign=middle;resizable=0;points=[];fontStyle=1" vertex="1" connectable="0" parent="bFZ082iqQ71JPYvCp7bj-644">
          <mxGeometry x="-0.0593" y="-1" relative="1" as="geometry">
            <mxPoint x="-6" as="offset" />
          </mxGeometry>
        </mxCell>
        <mxCell id="bFZ082iqQ71JPYvCp7bj-646" value="" style="group" vertex="1" connectable="0" parent="1">
          <mxGeometry x="1432" y="993" width="117" height="80" as="geometry" />
        </mxCell>
        <mxCell id="bFZ082iqQ71JPYvCp7bj-649" value="&lt;b&gt;&lt;font style=&quot;font-size: 19px;&quot;&gt;Cell 1&lt;/font&gt;&lt;/b&gt;" style="rounded=0;whiteSpace=wrap;html=1;strokeWidth=2;" vertex="1" parent="bFZ082iqQ71JPYvCp7bj-646">
          <mxGeometry x="15" width="80" height="80" as="geometry" />
        </mxCell>
        <mxCell id="bFZ082iqQ71JPYvCp7bj-650" value="&lt;font style=&quot;font-size: 8px;&quot;&gt;Cout&lt;/font&gt;" style="text;html=1;strokeColor=none;fillColor=none;align=center;verticalAlign=middle;whiteSpace=wrap;rounded=0;movable=0;resizable=0;rotatable=0;deletable=0;editable=0;locked=1;connectable=0;" vertex="1" parent="bFZ082iqQ71JPYvCp7bj-646">
          <mxGeometry x="20" y="49" width="20" height="30" as="geometry" />
        </mxCell>
        <mxCell id="bFZ082iqQ71JPYvCp7bj-651" value="&lt;font style=&quot;font-size: 8px;&quot;&gt;Cin&lt;/font&gt;" style="text;html=1;strokeColor=none;fillColor=none;align=center;verticalAlign=middle;whiteSpace=wrap;rounded=0;" vertex="1" parent="bFZ082iqQ71JPYvCp7bj-646">
          <mxGeometry x="55" y="48" width="60" height="30" as="geometry" />
        </mxCell>
        <mxCell id="bFZ082iqQ71JPYvCp7bj-652" value="" style="group" vertex="1" connectable="0" parent="1">
          <mxGeometry x="1609" y="993" width="117" height="80" as="geometry" />
        </mxCell>
        <mxCell id="bFZ082iqQ71JPYvCp7bj-653" value="&lt;b&gt;&lt;font style=&quot;font-size: 19px;&quot;&gt;Cell 1&lt;/font&gt;&lt;/b&gt;" style="rounded=0;whiteSpace=wrap;html=1;strokeWidth=2;" vertex="1" parent="bFZ082iqQ71JPYvCp7bj-652">
          <mxGeometry x="18" width="80" height="80" as="geometry" />
        </mxCell>
        <mxCell id="bFZ082iqQ71JPYvCp7bj-654" value="&lt;font style=&quot;font-size: 8px;&quot;&gt;Cout&lt;/font&gt;" style="text;html=1;strokeColor=none;fillColor=none;align=center;verticalAlign=middle;whiteSpace=wrap;rounded=0;" vertex="1" parent="bFZ082iqQ71JPYvCp7bj-652">
          <mxGeometry y="48" width="60" height="30" as="geometry" />
        </mxCell>
        <mxCell id="bFZ082iqQ71JPYvCp7bj-655" value="&lt;font style=&quot;font-size: 8px;&quot;&gt;Cin&lt;/font&gt;" style="text;html=1;strokeColor=none;fillColor=none;align=center;verticalAlign=middle;whiteSpace=wrap;rounded=0;" vertex="1" parent="bFZ082iqQ71JPYvCp7bj-652">
          <mxGeometry x="57" y="48" width="60" height="30" as="geometry" />
        </mxCell>
        <mxCell id="bFZ082iqQ71JPYvCp7bj-656" style="edgeStyle=orthogonalEdgeStyle;rounded=0;orthogonalLoop=1;jettySize=auto;html=1;startArrow=classic;startFill=1;endArrow=none;endFill=0;" edge="1" parent="1" source="bFZ082iqQ71JPYvCp7bj-670">
          <mxGeometry relative="1" as="geometry">
            <mxPoint x="1767" y="1033" as="targetPoint" />
          </mxGeometry>
        </mxCell>
        <mxCell id="bFZ082iqQ71JPYvCp7bj-657" value="&lt;font style=&quot;font-size: 15px;&quot;&gt;Q1&lt;/font&gt;" style="edgeLabel;html=1;align=center;verticalAlign=middle;resizable=0;points=[];fontStyle=1" vertex="1" connectable="0" parent="bFZ082iqQ71JPYvCp7bj-656">
          <mxGeometry x="0.0581" y="-1" relative="1" as="geometry">
            <mxPoint x="-2" as="offset" />
          </mxGeometry>
        </mxCell>
        <mxCell id="bFZ082iqQ71JPYvCp7bj-658" style="rounded=0;orthogonalLoop=1;jettySize=auto;html=1;exitX=0;exitY=0;exitDx=0;exitDy=0;startArrow=classic;startFill=1;endArrow=none;endFill=0;" edge="1" parent="1" source="bFZ082iqQ71JPYvCp7bj-670">
          <mxGeometry relative="1" as="geometry">
            <mxPoint x="1757" y="943" as="targetPoint" />
          </mxGeometry>
        </mxCell>
        <mxCell id="bFZ082iqQ71JPYvCp7bj-659" value="&lt;b style=&quot;font-size: 15px;&quot;&gt;&lt;font style=&quot;font-size: 15px;&quot;&gt;D0&lt;/font&gt;&lt;/b&gt;" style="edgeLabel;html=1;align=center;verticalAlign=middle;resizable=0;points=[];fontSize=15;" vertex="1" connectable="0" parent="bFZ082iqQ71JPYvCp7bj-658">
          <mxGeometry x="-0.0533" y="1" relative="1" as="geometry">
            <mxPoint x="-4" y="-5" as="offset" />
          </mxGeometry>
        </mxCell>
        <mxCell id="bFZ082iqQ71JPYvCp7bj-660" style="edgeStyle=orthogonalEdgeStyle;rounded=0;orthogonalLoop=1;jettySize=auto;html=1;startArrow=classic;startFill=1;endArrow=none;endFill=0;" edge="1" parent="1" source="bFZ082iqQ71JPYvCp7bj-670">
          <mxGeometry relative="1" as="geometry">
            <mxPoint x="1847" y="70" as="targetPoint" />
          </mxGeometry>
        </mxCell>
        <mxCell id="bFZ082iqQ71JPYvCp7bj-661" style="edgeStyle=orthogonalEdgeStyle;rounded=0;orthogonalLoop=1;jettySize=auto;html=1;entryX=1;entryY=0.75;entryDx=0;entryDy=0;exitX=0;exitY=0.75;exitDx=0;exitDy=0;" edge="1" parent="1">
          <mxGeometry relative="1" as="geometry">
            <mxPoint x="1807" y="1058" as="sourcePoint" />
            <mxPoint x="1707" y="1058" as="targetPoint" />
          </mxGeometry>
        </mxCell>
        <mxCell id="bFZ082iqQ71JPYvCp7bj-662" style="edgeStyle=orthogonalEdgeStyle;rounded=0;orthogonalLoop=1;jettySize=auto;html=1;startArrow=classic;startFill=1;endArrow=none;endFill=0;" edge="1" parent="1">
          <mxGeometry relative="1" as="geometry">
            <mxPoint x="1767" y="1013" as="targetPoint" />
            <mxPoint x="1807" y="1013" as="sourcePoint" />
          </mxGeometry>
        </mxCell>
        <mxCell id="bFZ082iqQ71JPYvCp7bj-663" value="&lt;font style=&quot;font-size: 15px;&quot;&gt;B2&lt;/font&gt;" style="edgeLabel;html=1;align=center;verticalAlign=middle;resizable=0;points=[];fontStyle=1" vertex="1" connectable="0" parent="bFZ082iqQ71JPYvCp7bj-662">
          <mxGeometry x="-0.0593" y="-1" relative="1" as="geometry">
            <mxPoint x="-6" as="offset" />
          </mxGeometry>
        </mxCell>
        <mxCell id="bFZ082iqQ71JPYvCp7bj-664" value="&lt;b&gt;&lt;font style=&quot;font-size: 15px;&quot;&gt;A0&lt;/font&gt;&lt;/b&gt;" style="text;html=1;strokeColor=none;fillColor=none;align=center;verticalAlign=middle;whiteSpace=wrap;rounded=0;" vertex="1" parent="1">
          <mxGeometry x="1850" y="950" width="39" height="30" as="geometry" />
        </mxCell>
        <mxCell id="bFZ082iqQ71JPYvCp7bj-665" style="edgeStyle=orthogonalEdgeStyle;rounded=0;orthogonalLoop=1;jettySize=auto;html=1;startArrow=classic;startFill=1;endArrow=none;endFill=0;" edge="1" parent="1">
          <mxGeometry relative="1" as="geometry">
            <mxPoint x="1947" y="1012" as="targetPoint" />
            <mxPoint x="1887" y="1012" as="sourcePoint" />
          </mxGeometry>
        </mxCell>
        <mxCell id="bFZ082iqQ71JPYvCp7bj-666" value="Div_nMul" style="edgeLabel;html=1;align=center;verticalAlign=middle;resizable=0;points=[];" vertex="1" connectable="0" parent="bFZ082iqQ71JPYvCp7bj-665">
          <mxGeometry x="-0.1605" relative="1" as="geometry">
            <mxPoint x="15" as="offset" />
          </mxGeometry>
        </mxCell>
        <mxCell id="bFZ082iqQ71JPYvCp7bj-667" style="edgeStyle=orthogonalEdgeStyle;rounded=0;orthogonalLoop=1;jettySize=auto;html=1;startArrow=classic;startFill=1;endArrow=none;endFill=0;" edge="1" parent="1">
          <mxGeometry relative="1" as="geometry">
            <mxPoint x="1937" y="1058" as="targetPoint" />
            <mxPoint x="1887" y="1058" as="sourcePoint" />
          </mxGeometry>
        </mxCell>
        <mxCell id="bFZ082iqQ71JPYvCp7bj-668" value="&lt;b&gt;&lt;font style=&quot;font-size: 15px;&quot;&gt;Q1&lt;/font&gt;&lt;/b&gt;" style="edgeLabel;html=1;align=center;verticalAlign=middle;resizable=0;points=[];" vertex="1" connectable="0" parent="bFZ082iqQ71JPYvCp7bj-667">
          <mxGeometry x="0.2226" relative="1" as="geometry">
            <mxPoint x="-3" y="-1" as="offset" />
          </mxGeometry>
        </mxCell>
        <mxCell id="bFZ082iqQ71JPYvCp7bj-669" value="" style="group" vertex="1" connectable="0" parent="1">
          <mxGeometry x="1789" y="993" width="117" height="80" as="geometry" />
        </mxCell>
        <mxCell id="bFZ082iqQ71JPYvCp7bj-863" style="edgeStyle=orthogonalEdgeStyle;rounded=0;orthogonalLoop=1;jettySize=auto;html=1;" edge="1" parent="bFZ082iqQ71JPYvCp7bj-669" source="bFZ082iqQ71JPYvCp7bj-670">
          <mxGeometry relative="1" as="geometry">
            <mxPoint x="58" y="127" as="targetPoint" />
          </mxGeometry>
        </mxCell>
        <mxCell id="bFZ082iqQ71JPYvCp7bj-670" value="&lt;b&gt;&lt;font style=&quot;font-size: 19px;&quot;&gt;Cell 2&lt;/font&gt;&lt;/b&gt;" style="rounded=0;whiteSpace=wrap;html=1;strokeWidth=2;" vertex="1" parent="bFZ082iqQ71JPYvCp7bj-669">
          <mxGeometry x="18" width="80" height="80" as="geometry" />
        </mxCell>
        <mxCell id="bFZ082iqQ71JPYvCp7bj-671" value="&lt;font style=&quot;font-size: 8px;&quot;&gt;Cout&lt;/font&gt;" style="text;html=1;strokeColor=none;fillColor=none;align=center;verticalAlign=middle;whiteSpace=wrap;rounded=0;movable=0;resizable=0;rotatable=0;deletable=0;editable=0;locked=1;connectable=0;" vertex="1" parent="bFZ082iqQ71JPYvCp7bj-669">
          <mxGeometry x="20" y="48" width="20" height="30" as="geometry" />
        </mxCell>
        <mxCell id="bFZ082iqQ71JPYvCp7bj-672" value="&lt;font style=&quot;font-size: 8px;&quot;&gt;Cin&lt;/font&gt;" style="text;html=1;strokeColor=none;fillColor=none;align=center;verticalAlign=middle;whiteSpace=wrap;rounded=0;movable=0;resizable=0;rotatable=0;deletable=0;editable=0;locked=1;connectable=0;" vertex="1" parent="bFZ082iqQ71JPYvCp7bj-669">
          <mxGeometry x="68" y="48" width="33" height="30" as="geometry" />
        </mxCell>
        <mxCell id="bFZ082iqQ71JPYvCp7bj-673" style="edgeStyle=orthogonalEdgeStyle;rounded=0;orthogonalLoop=1;jettySize=auto;html=1;entryX=0.5;entryY=0;entryDx=0;entryDy=0;" edge="1" parent="1" source="bFZ082iqQ71JPYvCp7bj-607" target="bFZ082iqQ71JPYvCp7bj-649">
          <mxGeometry relative="1" as="geometry" />
        </mxCell>
        <mxCell id="bFZ082iqQ71JPYvCp7bj-674" style="edgeStyle=orthogonalEdgeStyle;rounded=0;orthogonalLoop=1;jettySize=auto;html=1;entryX=0.5;entryY=0;entryDx=0;entryDy=0;" edge="1" parent="1" source="bFZ082iqQ71JPYvCp7bj-624" target="bFZ082iqQ71JPYvCp7bj-653">
          <mxGeometry relative="1" as="geometry" />
        </mxCell>
        <mxCell id="bFZ082iqQ71JPYvCp7bj-675" value="&lt;span style=&quot;font-size: 15px;&quot;&gt;&lt;b&gt;A1&lt;/b&gt;&lt;/span&gt;" style="text;html=1;strokeColor=none;fillColor=none;align=center;verticalAlign=middle;whiteSpace=wrap;rounded=0;" vertex="1" parent="1">
          <mxGeometry x="1652.5" y="760" width="30" height="30" as="geometry" />
        </mxCell>
        <mxCell id="bFZ082iqQ71JPYvCp7bj-677" style="edgeStyle=orthogonalEdgeStyle;rounded=0;orthogonalLoop=1;jettySize=auto;html=1;" edge="1" parent="1" source="bFZ082iqQ71JPYvCp7bj-553" target="bFZ082iqQ71JPYvCp7bj-603">
          <mxGeometry relative="1" as="geometry" />
        </mxCell>
        <mxCell id="bFZ082iqQ71JPYvCp7bj-678" style="edgeStyle=orthogonalEdgeStyle;rounded=0;orthogonalLoop=1;jettySize=auto;html=1;entryX=0.5;entryY=0;entryDx=0;entryDy=0;" edge="1" parent="1" source="bFZ082iqQ71JPYvCp7bj-570" target="bFZ082iqQ71JPYvCp7bj-607">
          <mxGeometry relative="1" as="geometry" />
        </mxCell>
        <mxCell id="bFZ082iqQ71JPYvCp7bj-733" style="edgeStyle=orthogonalEdgeStyle;rounded=0;orthogonalLoop=1;jettySize=auto;html=1;entryX=0.5;entryY=0;entryDx=0;entryDy=0;" edge="1" parent="1" source="bFZ082iqQ71JPYvCp7bj-1" target="bFZ082iqQ71JPYvCp7bj-732">
          <mxGeometry relative="1" as="geometry" />
        </mxCell>
        <mxCell id="bFZ082iqQ71JPYvCp7bj-735" style="edgeStyle=orthogonalEdgeStyle;rounded=0;orthogonalLoop=1;jettySize=auto;html=1;" edge="1" parent="1" target="bFZ082iqQ71JPYvCp7bj-732">
          <mxGeometry relative="1" as="geometry">
            <mxPoint x="728" y="580" as="sourcePoint" />
          </mxGeometry>
        </mxCell>
        <mxCell id="bFZ082iqQ71JPYvCp7bj-739" style="edgeStyle=orthogonalEdgeStyle;rounded=0;orthogonalLoop=1;jettySize=auto;html=1;entryX=1;entryY=0.5;entryDx=0;entryDy=0;" edge="1" parent="1">
          <mxGeometry relative="1" as="geometry">
            <mxPoint x="727" y="480" as="sourcePoint" />
            <mxPoint x="627" y="480" as="targetPoint" />
          </mxGeometry>
        </mxCell>
        <mxCell id="bFZ082iqQ71JPYvCp7bj-777" value="&lt;b&gt;&lt;font style=&quot;font-size: 15px;&quot;&gt;Q4&lt;/font&gt;&lt;/b&gt;" style="edgeLabel;html=1;align=center;verticalAlign=middle;resizable=0;points=[];" vertex="1" connectable="0" parent="bFZ082iqQ71JPYvCp7bj-739">
          <mxGeometry x="0.1323" y="-1" relative="1" as="geometry">
            <mxPoint x="-3" y="1" as="offset" />
          </mxGeometry>
        </mxCell>
        <mxCell id="bFZ082iqQ71JPYvCp7bj-744" value="" style="group" vertex="1" connectable="0" parent="1">
          <mxGeometry x="544" y="415" width="83" height="85" as="geometry" />
        </mxCell>
        <mxCell id="bFZ082iqQ71JPYvCp7bj-732" value="&lt;b&gt;&lt;font style=&quot;font-size: 19px;&quot;&gt;FA&lt;/font&gt;&lt;/b&gt;" style="rounded=0;whiteSpace=wrap;html=1;strokeWidth=2;" vertex="1" parent="bFZ082iqQ71JPYvCp7bj-744">
          <mxGeometry x="3" width="80" height="80" as="geometry" />
        </mxCell>
        <mxCell id="bFZ082iqQ71JPYvCp7bj-736" value="&lt;font style=&quot;font-size: 8px;&quot;&gt;Cout&lt;/font&gt;" style="text;html=1;strokeColor=none;fillColor=none;align=center;verticalAlign=middle;whiteSpace=wrap;rounded=0;movable=0;resizable=0;rotatable=0;deletable=0;editable=0;locked=1;connectable=0;" vertex="1" parent="bFZ082iqQ71JPYvCp7bj-744">
          <mxGeometry y="15" width="30" height="20" as="geometry" />
        </mxCell>
        <mxCell id="bFZ082iqQ71JPYvCp7bj-737" value="&lt;font style=&quot;font-size: 8px;&quot;&gt;Cin&lt;/font&gt;" style="text;html=1;strokeColor=none;fillColor=none;align=center;verticalAlign=middle;whiteSpace=wrap;rounded=0;movable=0;resizable=0;rotatable=0;deletable=0;editable=0;locked=1;connectable=0;" vertex="1" parent="bFZ082iqQ71JPYvCp7bj-744">
          <mxGeometry x="33" y="55" width="20" height="30" as="geometry" />
        </mxCell>
        <mxCell id="bFZ082iqQ71JPYvCp7bj-738" value="&lt;font style=&quot;font-size: 8px;&quot;&gt;R&lt;/font&gt;" style="text;html=1;strokeColor=none;fillColor=none;align=center;verticalAlign=middle;whiteSpace=wrap;rounded=0;movable=0;resizable=0;rotatable=0;deletable=0;editable=0;locked=1;connectable=0;" vertex="1" parent="bFZ082iqQ71JPYvCp7bj-744">
          <mxGeometry x="3" y="45" width="20" height="20" as="geometry" />
        </mxCell>
        <mxCell id="bFZ082iqQ71JPYvCp7bj-746" value="" style="group" vertex="1" connectable="0" parent="1">
          <mxGeometry x="234" y="530" width="184" height="30" as="geometry" />
        </mxCell>
        <mxCell id="bFZ082iqQ71JPYvCp7bj-728" style="edgeStyle=orthogonalEdgeStyle;rounded=0;orthogonalLoop=1;jettySize=auto;html=1;startArrow=classic;startFill=1;endArrow=none;endFill=0;" edge="1" parent="bFZ082iqQ71JPYvCp7bj-746" source="bFZ082iqQ71JPYvCp7bj-730">
          <mxGeometry relative="1" as="geometry">
            <mxPoint y="15" as="targetPoint" />
          </mxGeometry>
        </mxCell>
        <mxCell id="bFZ082iqQ71JPYvCp7bj-729" value="Div_nMul" style="edgeLabel;html=1;align=center;verticalAlign=middle;resizable=0;points=[];" vertex="1" connectable="0" parent="bFZ082iqQ71JPYvCp7bj-728">
          <mxGeometry x="-0.0019" y="-2" relative="1" as="geometry">
            <mxPoint x="-6" y="3" as="offset" />
          </mxGeometry>
        </mxCell>
        <mxCell id="bFZ082iqQ71JPYvCp7bj-745" value="" style="group" vertex="1" connectable="0" parent="bFZ082iqQ71JPYvCp7bj-746">
          <mxGeometry x="62" width="122" height="30" as="geometry" />
        </mxCell>
        <mxCell id="bFZ082iqQ71JPYvCp7bj-908" style="edgeStyle=orthogonalEdgeStyle;rounded=0;orthogonalLoop=1;jettySize=auto;html=1;" edge="1" parent="bFZ082iqQ71JPYvCp7bj-745" source="bFZ082iqQ71JPYvCp7bj-730">
          <mxGeometry relative="1" as="geometry">
            <mxPoint x="61" y="850" as="targetPoint" />
          </mxGeometry>
        </mxCell>
        <mxCell id="bFZ082iqQ71JPYvCp7bj-730" value="" style="shape=trapezoid;perimeter=trapezoidPerimeter;whiteSpace=wrap;html=1;fixedSize=1;rotation=-180;size=27.999999999999886;" vertex="1" parent="bFZ082iqQ71JPYvCp7bj-745">
          <mxGeometry width="122" height="30" as="geometry" />
        </mxCell>
        <mxCell id="bFZ082iqQ71JPYvCp7bj-731" value="1" style="text;html=1;strokeColor=none;fillColor=none;align=center;verticalAlign=middle;whiteSpace=wrap;rounded=0;movable=1;resizable=1;rotatable=1;deletable=1;editable=1;locked=0;connectable=1;" vertex="1" parent="bFZ082iqQ71JPYvCp7bj-745">
          <mxGeometry x="83" width="10" height="20" as="geometry" />
        </mxCell>
        <mxCell id="bFZ082iqQ71JPYvCp7bj-763" value="0" style="text;html=1;strokeColor=none;fillColor=none;align=center;verticalAlign=middle;whiteSpace=wrap;rounded=0;movable=1;resizable=1;rotatable=1;deletable=1;editable=1;locked=0;connectable=1;" vertex="1" parent="bFZ082iqQ71JPYvCp7bj-745">
          <mxGeometry x="25" width="10" height="20" as="geometry" />
        </mxCell>
        <mxCell id="bFZ082iqQ71JPYvCp7bj-747" value="" style="group" vertex="1" connectable="0" parent="1">
          <mxGeometry x="726" y="554" width="83" height="85" as="geometry" />
        </mxCell>
        <mxCell id="bFZ082iqQ71JPYvCp7bj-748" value="&lt;b&gt;&lt;font style=&quot;font-size: 19px;&quot;&gt;FA&lt;/font&gt;&lt;/b&gt;" style="rounded=0;whiteSpace=wrap;html=1;strokeWidth=2;" vertex="1" parent="bFZ082iqQ71JPYvCp7bj-747">
          <mxGeometry x="3" width="80" height="80" as="geometry" />
        </mxCell>
        <mxCell id="bFZ082iqQ71JPYvCp7bj-749" value="&lt;font style=&quot;font-size: 8px;&quot;&gt;Cout&lt;/font&gt;" style="text;html=1;strokeColor=none;fillColor=none;align=center;verticalAlign=middle;whiteSpace=wrap;rounded=0;movable=0;resizable=0;rotatable=0;deletable=0;editable=0;locked=1;connectable=0;" vertex="1" parent="bFZ082iqQ71JPYvCp7bj-747">
          <mxGeometry y="15" width="30" height="20" as="geometry" />
        </mxCell>
        <mxCell id="bFZ082iqQ71JPYvCp7bj-750" value="&lt;font style=&quot;font-size: 8px;&quot;&gt;Cin&lt;/font&gt;" style="text;html=1;strokeColor=none;fillColor=none;align=center;verticalAlign=middle;whiteSpace=wrap;rounded=0;movable=0;resizable=0;rotatable=0;deletable=0;editable=0;locked=1;connectable=0;" vertex="1" parent="bFZ082iqQ71JPYvCp7bj-747">
          <mxGeometry x="59" y="51" width="20" height="30" as="geometry" />
        </mxCell>
        <mxCell id="bFZ082iqQ71JPYvCp7bj-751" value="&lt;font style=&quot;font-size: 8px;&quot;&gt;R&lt;/font&gt;" style="text;html=1;strokeColor=none;fillColor=none;align=center;verticalAlign=middle;whiteSpace=wrap;rounded=0;movable=0;resizable=0;rotatable=0;deletable=0;editable=0;locked=1;connectable=0;" vertex="1" parent="bFZ082iqQ71JPYvCp7bj-747">
          <mxGeometry x="5" y="57.5" width="25" height="17" as="geometry" />
        </mxCell>
        <mxCell id="bFZ082iqQ71JPYvCp7bj-759" style="edgeStyle=orthogonalEdgeStyle;rounded=0;orthogonalLoop=1;jettySize=auto;html=1;entryX=0.5;entryY=0;entryDx=0;entryDy=0;exitX=0.002;exitY=0.863;exitDx=0;exitDy=0;exitPerimeter=0;" edge="1" parent="1" source="bFZ082iqQ71JPYvCp7bj-1" target="bFZ082iqQ71JPYvCp7bj-731">
          <mxGeometry relative="1" as="geometry" />
        </mxCell>
        <mxCell id="bFZ082iqQ71JPYvCp7bj-761" value="&lt;b&gt;&lt;font style=&quot;font-size: 14px;&quot;&gt;Q5&lt;/font&gt;&lt;/b&gt;" style="edgeLabel;html=1;align=center;verticalAlign=middle;resizable=0;points=[];" vertex="1" connectable="0" parent="bFZ082iqQ71JPYvCp7bj-759">
          <mxGeometry x="-0.5759" y="-3" relative="1" as="geometry">
            <mxPoint y="2" as="offset" />
          </mxGeometry>
        </mxCell>
        <mxCell id="bFZ082iqQ71JPYvCp7bj-762" style="edgeStyle=orthogonalEdgeStyle;rounded=0;orthogonalLoop=1;jettySize=auto;html=1;entryX=0.75;entryY=1;entryDx=0;entryDy=0;" edge="1" parent="1" target="bFZ082iqQ71JPYvCp7bj-730">
          <mxGeometry relative="1" as="geometry">
            <mxPoint x="547" y="440" as="sourcePoint" />
          </mxGeometry>
        </mxCell>
        <mxCell id="bFZ082iqQ71JPYvCp7bj-802" value="&lt;b&gt;&lt;font style=&quot;font-size: 12px;&quot;&gt;Mul[5]&lt;/font&gt;&lt;/b&gt;" style="edgeLabel;html=1;align=center;verticalAlign=middle;resizable=0;points=[];" vertex="1" connectable="0" parent="bFZ082iqQ71JPYvCp7bj-762">
          <mxGeometry x="-0.4996" y="-1" relative="1" as="geometry">
            <mxPoint x="5" as="offset" />
          </mxGeometry>
        </mxCell>
        <mxCell id="bFZ082iqQ71JPYvCp7bj-767" value="" style="group" vertex="1" connectable="0" parent="1">
          <mxGeometry x="340" y="651" width="184" height="30" as="geometry" />
        </mxCell>
        <mxCell id="bFZ082iqQ71JPYvCp7bj-768" style="edgeStyle=orthogonalEdgeStyle;rounded=0;orthogonalLoop=1;jettySize=auto;html=1;startArrow=classic;startFill=1;endArrow=none;endFill=0;" edge="1" parent="bFZ082iqQ71JPYvCp7bj-767" source="bFZ082iqQ71JPYvCp7bj-771">
          <mxGeometry relative="1" as="geometry">
            <mxPoint x="-40" y="15" as="targetPoint" />
          </mxGeometry>
        </mxCell>
        <mxCell id="bFZ082iqQ71JPYvCp7bj-769" value="Div_nMul" style="edgeLabel;html=1;align=center;verticalAlign=middle;resizable=0;points=[];" vertex="1" connectable="0" parent="bFZ082iqQ71JPYvCp7bj-768">
          <mxGeometry x="-0.0019" y="-2" relative="1" as="geometry">
            <mxPoint x="11" y="2" as="offset" />
          </mxGeometry>
        </mxCell>
        <mxCell id="bFZ082iqQ71JPYvCp7bj-770" value="" style="group" vertex="1" connectable="0" parent="bFZ082iqQ71JPYvCp7bj-767">
          <mxGeometry x="62" width="122" height="30" as="geometry" />
        </mxCell>
        <mxCell id="bFZ082iqQ71JPYvCp7bj-776" style="edgeStyle=orthogonalEdgeStyle;rounded=0;orthogonalLoop=1;jettySize=auto;html=1;exitX=0.5;exitY=0;exitDx=0;exitDy=0;startArrow=classic;startFill=1;endArrow=none;endFill=0;" edge="1" parent="bFZ082iqQ71JPYvCp7bj-770" source="bFZ082iqQ71JPYvCp7bj-772">
          <mxGeometry relative="1" as="geometry">
            <mxPoint x="245" y="-170" as="targetPoint" />
            <Array as="points">
              <mxPoint x="88" y="-123" />
              <mxPoint x="245" y="-123" />
            </Array>
          </mxGeometry>
        </mxCell>
        <mxCell id="bFZ082iqQ71JPYvCp7bj-805" value="&lt;b style=&quot;border-color: var(--border-color);&quot;&gt;&lt;font style=&quot;border-color: var(--border-color); font-size: 15px;&quot;&gt;Q4&lt;/font&gt;&lt;/b&gt;" style="edgeLabel;html=1;align=center;verticalAlign=middle;resizable=0;points=[];" vertex="1" connectable="0" parent="bFZ082iqQ71JPYvCp7bj-776">
          <mxGeometry x="-0.5451" relative="1" as="geometry">
            <mxPoint as="offset" />
          </mxGeometry>
        </mxCell>
        <mxCell id="bFZ082iqQ71JPYvCp7bj-913" style="edgeStyle=orthogonalEdgeStyle;rounded=0;orthogonalLoop=1;jettySize=auto;html=1;exitX=0.5;exitY=0;exitDx=0;exitDy=0;" edge="1" parent="bFZ082iqQ71JPYvCp7bj-770" source="bFZ082iqQ71JPYvCp7bj-771">
          <mxGeometry relative="1" as="geometry">
            <mxPoint x="-22" y="730.0000000000002" as="targetPoint" />
            <Array as="points">
              <mxPoint x="61" y="70" />
              <mxPoint x="-22" y="70" />
            </Array>
          </mxGeometry>
        </mxCell>
        <mxCell id="bFZ082iqQ71JPYvCp7bj-771" value="" style="shape=trapezoid;perimeter=trapezoidPerimeter;whiteSpace=wrap;html=1;fixedSize=1;rotation=-180;size=27.999999999999886;" vertex="1" parent="bFZ082iqQ71JPYvCp7bj-770">
          <mxGeometry width="122" height="30" as="geometry" />
        </mxCell>
        <mxCell id="bFZ082iqQ71JPYvCp7bj-772" value="1" style="text;html=1;strokeColor=none;fillColor=none;align=center;verticalAlign=middle;whiteSpace=wrap;rounded=0;movable=1;resizable=1;rotatable=1;deletable=1;editable=1;locked=0;connectable=1;" vertex="1" parent="bFZ082iqQ71JPYvCp7bj-770">
          <mxGeometry x="83" width="10" height="20" as="geometry" />
        </mxCell>
        <mxCell id="bFZ082iqQ71JPYvCp7bj-773" value="0" style="text;html=1;strokeColor=none;fillColor=none;align=center;verticalAlign=middle;whiteSpace=wrap;rounded=0;movable=1;resizable=1;rotatable=1;deletable=1;editable=1;locked=0;connectable=1;" vertex="1" parent="bFZ082iqQ71JPYvCp7bj-770">
          <mxGeometry x="25" width="10" height="20" as="geometry" />
        </mxCell>
        <mxCell id="bFZ082iqQ71JPYvCp7bj-775" style="edgeStyle=orthogonalEdgeStyle;rounded=0;orthogonalLoop=1;jettySize=auto;html=1;entryX=0.5;entryY=0;entryDx=0;entryDy=0;" edge="1" parent="1" target="bFZ082iqQ71JPYvCp7bj-773">
          <mxGeometry relative="1" as="geometry">
            <mxPoint x="547" y="470" as="sourcePoint" />
          </mxGeometry>
        </mxCell>
        <mxCell id="bFZ082iqQ71JPYvCp7bj-803" value="&lt;b style=&quot;border-color: var(--border-color);&quot;&gt;&lt;font style=&quot;border-color: var(--border-color); font-size: 12px;&quot;&gt;Mul[4]&lt;/font&gt;&lt;/b&gt;" style="edgeLabel;html=1;align=center;verticalAlign=middle;resizable=0;points=[];rotation=90;" vertex="1" connectable="0" parent="bFZ082iqQ71JPYvCp7bj-775">
          <mxGeometry x="0.1531" y="-1" relative="1" as="geometry">
            <mxPoint x="2" y="7" as="offset" />
          </mxGeometry>
        </mxCell>
        <mxCell id="bFZ082iqQ71JPYvCp7bj-794" value="" style="group" vertex="1" connectable="0" parent="1">
          <mxGeometry x="553.5" y="703" width="184" height="30" as="geometry" />
        </mxCell>
        <mxCell id="bFZ082iqQ71JPYvCp7bj-795" style="edgeStyle=orthogonalEdgeStyle;rounded=0;orthogonalLoop=1;jettySize=auto;html=1;startArrow=classic;startFill=1;endArrow=none;endFill=0;" edge="1" parent="bFZ082iqQ71JPYvCp7bj-794" source="bFZ082iqQ71JPYvCp7bj-798">
          <mxGeometry relative="1" as="geometry">
            <mxPoint y="15" as="targetPoint" />
          </mxGeometry>
        </mxCell>
        <mxCell id="bFZ082iqQ71JPYvCp7bj-796" value="Div_nMul" style="edgeLabel;html=1;align=center;verticalAlign=middle;resizable=0;points=[];" vertex="1" connectable="0" parent="bFZ082iqQ71JPYvCp7bj-795">
          <mxGeometry x="-0.0019" y="-2" relative="1" as="geometry">
            <mxPoint x="-6" y="3" as="offset" />
          </mxGeometry>
        </mxCell>
        <mxCell id="bFZ082iqQ71JPYvCp7bj-797" value="" style="group" vertex="1" connectable="0" parent="bFZ082iqQ71JPYvCp7bj-794">
          <mxGeometry x="62" width="122" height="30" as="geometry" />
        </mxCell>
        <mxCell id="bFZ082iqQ71JPYvCp7bj-809" style="edgeStyle=orthogonalEdgeStyle;rounded=0;orthogonalLoop=1;jettySize=auto;html=1;exitX=0.298;exitY=0.986;exitDx=0;exitDy=0;exitPerimeter=0;startArrow=classic;startFill=1;endArrow=none;endFill=0;" edge="1" parent="bFZ082iqQ71JPYvCp7bj-797" source="bFZ082iqQ71JPYvCp7bj-798">
          <mxGeometry relative="1" as="geometry">
            <mxPoint x="208" y="-80" as="targetPoint" />
          </mxGeometry>
        </mxCell>
        <mxCell id="bFZ082iqQ71JPYvCp7bj-814" value="&lt;b style=&quot;border-color: var(--border-color);&quot;&gt;&lt;font style=&quot;border-color: var(--border-color); font-size: 15px;&quot;&gt;Q3&lt;/font&gt;&lt;/b&gt;" style="edgeLabel;html=1;align=center;verticalAlign=middle;resizable=0;points=[];" vertex="1" connectable="0" parent="bFZ082iqQ71JPYvCp7bj-809">
          <mxGeometry x="-0.4558" y="3" relative="1" as="geometry">
            <mxPoint x="-11" y="6" as="offset" />
          </mxGeometry>
        </mxCell>
        <mxCell id="bFZ082iqQ71JPYvCp7bj-914" style="edgeStyle=orthogonalEdgeStyle;rounded=0;orthogonalLoop=1;jettySize=auto;html=1;" edge="1" parent="bFZ082iqQ71JPYvCp7bj-797" source="bFZ082iqQ71JPYvCp7bj-798">
          <mxGeometry relative="1" as="geometry">
            <mxPoint x="-209" y="678.0000000000002" as="targetPoint" />
            <Array as="points">
              <mxPoint x="61" y="58" />
              <mxPoint x="-209" y="58" />
            </Array>
          </mxGeometry>
        </mxCell>
        <mxCell id="bFZ082iqQ71JPYvCp7bj-798" value="" style="shape=trapezoid;perimeter=trapezoidPerimeter;whiteSpace=wrap;html=1;fixedSize=1;rotation=-180;size=27.999999999999886;" vertex="1" parent="bFZ082iqQ71JPYvCp7bj-797">
          <mxGeometry width="122" height="30" as="geometry" />
        </mxCell>
        <mxCell id="bFZ082iqQ71JPYvCp7bj-799" value="1" style="text;html=1;strokeColor=none;fillColor=none;align=center;verticalAlign=middle;whiteSpace=wrap;rounded=0;movable=1;resizable=1;rotatable=1;deletable=1;editable=1;locked=0;connectable=1;" vertex="1" parent="bFZ082iqQ71JPYvCp7bj-797">
          <mxGeometry x="83" width="10" height="20" as="geometry" />
        </mxCell>
        <mxCell id="bFZ082iqQ71JPYvCp7bj-800" value="0" style="text;html=1;strokeColor=none;fillColor=none;align=center;verticalAlign=middle;whiteSpace=wrap;rounded=0;movable=1;resizable=1;rotatable=1;deletable=1;editable=1;locked=0;connectable=1;" vertex="1" parent="bFZ082iqQ71JPYvCp7bj-797">
          <mxGeometry x="25" width="10" height="20" as="geometry" />
        </mxCell>
        <mxCell id="bFZ082iqQ71JPYvCp7bj-808" style="edgeStyle=orthogonalEdgeStyle;rounded=0;orthogonalLoop=1;jettySize=auto;html=1;entryX=0.25;entryY=0;entryDx=0;entryDy=0;" edge="1" parent="1" target="bFZ082iqQ71JPYvCp7bj-800">
          <mxGeometry relative="1" as="geometry">
            <mxPoint x="727" y="620" as="sourcePoint" />
          </mxGeometry>
        </mxCell>
        <mxCell id="bFZ082iqQ71JPYvCp7bj-813" value="&lt;b style=&quot;border-color: var(--border-color);&quot;&gt;&lt;font style=&quot;border-color: var(--border-color); font-size: 12px;&quot;&gt;Mul[3]&lt;/font&gt;&lt;/b&gt;" style="edgeLabel;html=1;align=center;verticalAlign=middle;resizable=0;points=[];rotation=90;" vertex="1" connectable="0" parent="bFZ082iqQ71JPYvCp7bj-808">
          <mxGeometry x="0.103" y="-1" relative="1" as="geometry">
            <mxPoint x="2" y="16" as="offset" />
          </mxGeometry>
        </mxCell>
        <mxCell id="bFZ082iqQ71JPYvCp7bj-825" value="" style="group" vertex="1" connectable="0" parent="1">
          <mxGeometry x="760" y="790" width="184" height="30" as="geometry" />
        </mxCell>
        <mxCell id="bFZ082iqQ71JPYvCp7bj-826" style="edgeStyle=orthogonalEdgeStyle;rounded=0;orthogonalLoop=1;jettySize=auto;html=1;startArrow=classic;startFill=1;endArrow=none;endFill=0;" edge="1" parent="bFZ082iqQ71JPYvCp7bj-825" source="bFZ082iqQ71JPYvCp7bj-829">
          <mxGeometry relative="1" as="geometry">
            <mxPoint y="15" as="targetPoint" />
          </mxGeometry>
        </mxCell>
        <mxCell id="bFZ082iqQ71JPYvCp7bj-827" value="Div_nMul" style="edgeLabel;html=1;align=center;verticalAlign=middle;resizable=0;points=[];" vertex="1" connectable="0" parent="bFZ082iqQ71JPYvCp7bj-826">
          <mxGeometry x="-0.0019" y="-2" relative="1" as="geometry">
            <mxPoint x="-6" y="3" as="offset" />
          </mxGeometry>
        </mxCell>
        <mxCell id="bFZ082iqQ71JPYvCp7bj-828" value="" style="group" vertex="1" connectable="0" parent="bFZ082iqQ71JPYvCp7bj-825">
          <mxGeometry x="62" width="122" height="30" as="geometry" />
        </mxCell>
        <mxCell id="bFZ082iqQ71JPYvCp7bj-915" style="edgeStyle=orthogonalEdgeStyle;rounded=0;orthogonalLoop=1;jettySize=auto;html=1;exitX=0.5;exitY=0;exitDx=0;exitDy=0;" edge="1" parent="bFZ082iqQ71JPYvCp7bj-828" source="bFZ082iqQ71JPYvCp7bj-829">
          <mxGeometry relative="1" as="geometry">
            <mxPoint x="-391" y="590.0000000000002" as="targetPoint" />
            <Array as="points">
              <mxPoint x="61" y="50" />
              <mxPoint x="-391" y="50" />
            </Array>
          </mxGeometry>
        </mxCell>
        <mxCell id="bFZ082iqQ71JPYvCp7bj-829" value="" style="shape=trapezoid;perimeter=trapezoidPerimeter;whiteSpace=wrap;html=1;fixedSize=1;rotation=-180;size=27.999999999999886;" vertex="1" parent="bFZ082iqQ71JPYvCp7bj-828">
          <mxGeometry width="122" height="30" as="geometry" />
        </mxCell>
        <mxCell id="bFZ082iqQ71JPYvCp7bj-830" value="1" style="text;html=1;strokeColor=none;fillColor=none;align=center;verticalAlign=middle;whiteSpace=wrap;rounded=0;movable=1;resizable=1;rotatable=1;deletable=1;editable=1;locked=0;connectable=1;" vertex="1" parent="bFZ082iqQ71JPYvCp7bj-828">
          <mxGeometry x="83" width="10" height="20" as="geometry" />
        </mxCell>
        <mxCell id="bFZ082iqQ71JPYvCp7bj-831" value="0" style="text;html=1;strokeColor=none;fillColor=none;align=center;verticalAlign=middle;whiteSpace=wrap;rounded=0;movable=1;resizable=1;rotatable=1;deletable=1;editable=1;locked=0;connectable=1;" vertex="1" parent="bFZ082iqQ71JPYvCp7bj-828">
          <mxGeometry x="25" width="10" height="20" as="geometry" />
        </mxCell>
        <mxCell id="bFZ082iqQ71JPYvCp7bj-837" style="edgeStyle=orthogonalEdgeStyle;rounded=0;orthogonalLoop=1;jettySize=auto;html=1;entryX=0.5;entryY=1;entryDx=0;entryDy=0;exitX=0.5;exitY=0;exitDx=0;exitDy=0;startArrow=classic;startFill=1;endArrow=none;endFill=0;" edge="1" parent="1" source="bFZ082iqQ71JPYvCp7bj-831" target="bFZ082iqQ71JPYvCp7bj-501">
          <mxGeometry relative="1" as="geometry" />
        </mxCell>
        <mxCell id="bFZ082iqQ71JPYvCp7bj-841" value="&lt;b style=&quot;border-color: var(--border-color);&quot;&gt;&lt;font style=&quot;border-color: var(--border-color); font-size: 12px;&quot;&gt;Mul[2]&lt;/font&gt;&lt;/b&gt;" style="edgeLabel;html=1;align=center;verticalAlign=middle;resizable=0;points=[];rotation=90;" vertex="1" connectable="0" parent="bFZ082iqQ71JPYvCp7bj-837">
          <mxGeometry x="-0.1554" y="-3" relative="1" as="geometry">
            <mxPoint x="-25" y="31" as="offset" />
          </mxGeometry>
        </mxCell>
        <mxCell id="bFZ082iqQ71JPYvCp7bj-839" style="edgeStyle=orthogonalEdgeStyle;rounded=0;orthogonalLoop=1;jettySize=auto;html=1;entryX=0.5;entryY=0;entryDx=0;entryDy=0;" edge="1" parent="1" target="bFZ082iqQ71JPYvCp7bj-830">
          <mxGeometry relative="1" as="geometry">
            <mxPoint x="1087" y="770" as="sourcePoint" />
          </mxGeometry>
        </mxCell>
        <mxCell id="bFZ082iqQ71JPYvCp7bj-840" value="&lt;b&gt;&lt;font style=&quot;font-size: 15px;&quot;&gt;Q2&lt;/font&gt;&lt;/b&gt;" style="edgeLabel;html=1;align=center;verticalAlign=middle;resizable=0;points=[];" vertex="1" connectable="0" parent="bFZ082iqQ71JPYvCp7bj-839">
          <mxGeometry x="0.3605" y="-2" relative="1" as="geometry">
            <mxPoint x="-7" y="2" as="offset" />
          </mxGeometry>
        </mxCell>
        <mxCell id="bFZ082iqQ71JPYvCp7bj-842" value="" style="group" vertex="1" connectable="0" parent="1">
          <mxGeometry x="940" y="941" width="184" height="30" as="geometry" />
        </mxCell>
        <mxCell id="bFZ082iqQ71JPYvCp7bj-843" style="edgeStyle=orthogonalEdgeStyle;rounded=0;orthogonalLoop=1;jettySize=auto;html=1;startArrow=classic;startFill=1;endArrow=none;endFill=0;" edge="1" parent="bFZ082iqQ71JPYvCp7bj-842" source="bFZ082iqQ71JPYvCp7bj-846">
          <mxGeometry relative="1" as="geometry">
            <mxPoint y="15" as="targetPoint" />
          </mxGeometry>
        </mxCell>
        <mxCell id="bFZ082iqQ71JPYvCp7bj-844" value="Div_nMul" style="edgeLabel;html=1;align=center;verticalAlign=middle;resizable=0;points=[];" vertex="1" connectable="0" parent="bFZ082iqQ71JPYvCp7bj-843">
          <mxGeometry x="-0.0019" y="-2" relative="1" as="geometry">
            <mxPoint x="-6" y="3" as="offset" />
          </mxGeometry>
        </mxCell>
        <mxCell id="bFZ082iqQ71JPYvCp7bj-845" value="" style="group" vertex="1" connectable="0" parent="bFZ082iqQ71JPYvCp7bj-842">
          <mxGeometry x="62" width="122" height="30" as="geometry" />
        </mxCell>
        <mxCell id="bFZ082iqQ71JPYvCp7bj-916" style="edgeStyle=orthogonalEdgeStyle;rounded=0;orthogonalLoop=1;jettySize=auto;html=1;exitX=0.5;exitY=0;exitDx=0;exitDy=0;" edge="1" parent="bFZ082iqQ71JPYvCp7bj-845" source="bFZ082iqQ71JPYvCp7bj-846">
          <mxGeometry relative="1" as="geometry">
            <mxPoint x="-544" y="440.0000000000002" as="targetPoint" />
            <Array as="points">
              <mxPoint x="61" y="60" />
              <mxPoint x="-544" y="60" />
            </Array>
          </mxGeometry>
        </mxCell>
        <mxCell id="bFZ082iqQ71JPYvCp7bj-846" value="" style="shape=trapezoid;perimeter=trapezoidPerimeter;whiteSpace=wrap;html=1;fixedSize=1;rotation=-180;size=27.999999999999886;" vertex="1" parent="bFZ082iqQ71JPYvCp7bj-845">
          <mxGeometry width="122" height="30" as="geometry" />
        </mxCell>
        <mxCell id="bFZ082iqQ71JPYvCp7bj-847" value="1" style="text;html=1;strokeColor=none;fillColor=none;align=center;verticalAlign=middle;whiteSpace=wrap;rounded=0;movable=1;resizable=1;rotatable=1;deletable=1;editable=1;locked=0;connectable=1;" vertex="1" parent="bFZ082iqQ71JPYvCp7bj-845">
          <mxGeometry x="83" width="10" height="20" as="geometry" />
        </mxCell>
        <mxCell id="bFZ082iqQ71JPYvCp7bj-848" value="0" style="text;html=1;strokeColor=none;fillColor=none;align=center;verticalAlign=middle;whiteSpace=wrap;rounded=0;movable=1;resizable=1;rotatable=1;deletable=1;editable=1;locked=0;connectable=1;" vertex="1" parent="bFZ082iqQ71JPYvCp7bj-845">
          <mxGeometry x="25" width="10" height="20" as="geometry" />
        </mxCell>
        <mxCell id="bFZ082iqQ71JPYvCp7bj-849" style="edgeStyle=orthogonalEdgeStyle;rounded=0;orthogonalLoop=1;jettySize=auto;html=1;entryX=0.25;entryY=0;entryDx=0;entryDy=0;" edge="1" parent="1" source="bFZ082iqQ71JPYvCp7bj-549" target="bFZ082iqQ71JPYvCp7bj-848">
          <mxGeometry relative="1" as="geometry" />
        </mxCell>
        <mxCell id="bFZ082iqQ71JPYvCp7bj-853" value="&lt;b style=&quot;border-color: var(--border-color);&quot;&gt;&lt;font style=&quot;border-color: var(--border-color); font-size: 12px;&quot;&gt;Mul[1]&lt;/font&gt;&lt;/b&gt;" style="edgeLabel;html=1;align=center;verticalAlign=middle;resizable=0;points=[];rotation=90;" vertex="1" connectable="0" parent="bFZ082iqQ71JPYvCp7bj-849">
          <mxGeometry x="0.4692" y="2" relative="1" as="geometry">
            <mxPoint y="9" as="offset" />
          </mxGeometry>
        </mxCell>
        <mxCell id="bFZ082iqQ71JPYvCp7bj-850" style="edgeStyle=orthogonalEdgeStyle;rounded=0;orthogonalLoop=1;jettySize=auto;html=1;entryX=0.5;entryY=0;entryDx=0;entryDy=0;" edge="1" parent="1" source="bFZ082iqQ71JPYvCp7bj-603" target="bFZ082iqQ71JPYvCp7bj-847">
          <mxGeometry relative="1" as="geometry">
            <Array as="points">
              <mxPoint x="1090" y="910" />
            </Array>
          </mxGeometry>
        </mxCell>
        <mxCell id="bFZ082iqQ71JPYvCp7bj-851" value="&lt;b&gt;&lt;font style=&quot;font-size: 15px;&quot;&gt;Q1&lt;/font&gt;&lt;/b&gt;" style="edgeLabel;html=1;align=center;verticalAlign=middle;resizable=0;points=[];" vertex="1" connectable="0" parent="bFZ082iqQ71JPYvCp7bj-850">
          <mxGeometry x="-0.2166" y="1" relative="1" as="geometry">
            <mxPoint x="-59" y="1" as="offset" />
          </mxGeometry>
        </mxCell>
        <mxCell id="bFZ082iqQ71JPYvCp7bj-854" value="" style="group" vertex="1" connectable="0" parent="1">
          <mxGeometry x="1097.5" y="1080" width="184" height="30" as="geometry" />
        </mxCell>
        <mxCell id="bFZ082iqQ71JPYvCp7bj-855" style="edgeStyle=orthogonalEdgeStyle;rounded=0;orthogonalLoop=1;jettySize=auto;html=1;startArrow=classic;startFill=1;endArrow=none;endFill=0;" edge="1" parent="bFZ082iqQ71JPYvCp7bj-854" source="bFZ082iqQ71JPYvCp7bj-858">
          <mxGeometry relative="1" as="geometry">
            <mxPoint y="15" as="targetPoint" />
          </mxGeometry>
        </mxCell>
        <mxCell id="bFZ082iqQ71JPYvCp7bj-856" value="Div_nMul" style="edgeLabel;html=1;align=center;verticalAlign=middle;resizable=0;points=[];" vertex="1" connectable="0" parent="bFZ082iqQ71JPYvCp7bj-855">
          <mxGeometry x="-0.0019" y="-2" relative="1" as="geometry">
            <mxPoint x="-6" y="3" as="offset" />
          </mxGeometry>
        </mxCell>
        <mxCell id="bFZ082iqQ71JPYvCp7bj-857" value="" style="group" vertex="1" connectable="0" parent="bFZ082iqQ71JPYvCp7bj-854">
          <mxGeometry x="62" width="122" height="30" as="geometry" />
        </mxCell>
        <mxCell id="bFZ082iqQ71JPYvCp7bj-917" style="edgeStyle=orthogonalEdgeStyle;rounded=0;orthogonalLoop=1;jettySize=auto;html=1;exitX=0.5;exitY=0;exitDx=0;exitDy=0;" edge="1" parent="bFZ082iqQ71JPYvCp7bj-857" source="bFZ082iqQ71JPYvCp7bj-858">
          <mxGeometry relative="1" as="geometry">
            <mxPoint x="-679" y="300.0000000000002" as="targetPoint" />
            <Array as="points">
              <mxPoint x="61" y="80" />
              <mxPoint x="-679" y="80" />
            </Array>
          </mxGeometry>
        </mxCell>
        <mxCell id="bFZ082iqQ71JPYvCp7bj-858" value="" style="shape=trapezoid;perimeter=trapezoidPerimeter;whiteSpace=wrap;html=1;fixedSize=1;rotation=-180;size=27.999999999999886;" vertex="1" parent="bFZ082iqQ71JPYvCp7bj-857">
          <mxGeometry width="122" height="30" as="geometry" />
        </mxCell>
        <mxCell id="bFZ082iqQ71JPYvCp7bj-859" value="1" style="text;html=1;strokeColor=none;fillColor=none;align=center;verticalAlign=middle;whiteSpace=wrap;rounded=0;movable=1;resizable=1;rotatable=1;deletable=1;editable=1;locked=0;connectable=1;" vertex="1" parent="bFZ082iqQ71JPYvCp7bj-857">
          <mxGeometry x="83" width="10" height="20" as="geometry" />
        </mxCell>
        <mxCell id="bFZ082iqQ71JPYvCp7bj-860" value="0" style="text;html=1;strokeColor=none;fillColor=none;align=center;verticalAlign=middle;whiteSpace=wrap;rounded=0;movable=1;resizable=1;rotatable=1;deletable=1;editable=1;locked=0;connectable=1;" vertex="1" parent="bFZ082iqQ71JPYvCp7bj-857">
          <mxGeometry x="25" width="10" height="20" as="geometry" />
        </mxCell>
        <mxCell id="bFZ082iqQ71JPYvCp7bj-861" style="edgeStyle=orthogonalEdgeStyle;rounded=0;orthogonalLoop=1;jettySize=auto;html=1;entryX=0.25;entryY=0;entryDx=0;entryDy=0;" edge="1" parent="1" source="bFZ082iqQ71JPYvCp7bj-603" target="bFZ082iqQ71JPYvCp7bj-860">
          <mxGeometry relative="1" as="geometry" />
        </mxCell>
        <mxCell id="bFZ082iqQ71JPYvCp7bj-901" value="&lt;b style=&quot;border-color: var(--border-color);&quot;&gt;&lt;font style=&quot;border-color: var(--border-color); font-size: 12px;&quot;&gt;Mul[0]&lt;/font&gt;&lt;/b&gt;" style="edgeLabel;html=1;align=center;verticalAlign=middle;resizable=0;points=[];rotation=90;" vertex="1" connectable="0" parent="bFZ082iqQ71JPYvCp7bj-861">
          <mxGeometry x="0.5403" y="-4" relative="1" as="geometry">
            <mxPoint x="5" y="3" as="offset" />
          </mxGeometry>
        </mxCell>
        <mxCell id="bFZ082iqQ71JPYvCp7bj-862" style="edgeStyle=orthogonalEdgeStyle;rounded=0;orthogonalLoop=1;jettySize=auto;html=1;entryX=0.5;entryY=0;entryDx=0;entryDy=0;" edge="1" parent="1" source="bFZ082iqQ71JPYvCp7bj-649" target="bFZ082iqQ71JPYvCp7bj-859">
          <mxGeometry relative="1" as="geometry">
            <Array as="points">
              <mxPoint x="1248" y="1060" />
              <mxPoint x="1248" y="1080" />
            </Array>
          </mxGeometry>
        </mxCell>
        <mxCell id="bFZ082iqQ71JPYvCp7bj-899" value="&lt;b&gt;&lt;font style=&quot;font-size: 15px;&quot;&gt;Q0&lt;/font&gt;&lt;/b&gt;" style="edgeLabel;html=1;align=center;verticalAlign=middle;resizable=0;points=[];" vertex="1" connectable="0" parent="bFZ082iqQ71JPYvCp7bj-862">
          <mxGeometry x="0.4536" relative="1" as="geometry">
            <mxPoint x="4" y="-3" as="offset" />
          </mxGeometry>
        </mxCell>
        <mxCell id="bFZ082iqQ71JPYvCp7bj-864" value="" style="group" vertex="1" connectable="0" parent="1">
          <mxGeometry x="1789" y="1120" width="117" height="80" as="geometry" />
        </mxCell>
        <mxCell id="bFZ082iqQ71JPYvCp7bj-865" style="edgeStyle=orthogonalEdgeStyle;rounded=0;orthogonalLoop=1;jettySize=auto;html=1;exitX=0.5;exitY=1;exitDx=0;exitDy=0;" edge="1" parent="bFZ082iqQ71JPYvCp7bj-864" source="bFZ082iqQ71JPYvCp7bj-866">
          <mxGeometry relative="1" as="geometry">
            <mxPoint x="-79" y="270" as="targetPoint" />
            <Array as="points">
              <mxPoint x="58" y="170" />
              <mxPoint x="-79" y="170" />
            </Array>
          </mxGeometry>
        </mxCell>
        <mxCell id="bFZ082iqQ71JPYvCp7bj-869" style="edgeStyle=orthogonalEdgeStyle;rounded=0;orthogonalLoop=1;jettySize=auto;html=1;startArrow=classic;startFill=1;endArrow=none;endFill=0;" edge="1" parent="bFZ082iqQ71JPYvCp7bj-864">
          <mxGeometry relative="1" as="geometry">
            <mxPoint x="148" y="64" as="targetPoint" />
            <mxPoint x="98" y="64" as="sourcePoint" />
          </mxGeometry>
        </mxCell>
        <mxCell id="bFZ082iqQ71JPYvCp7bj-904" style="edgeStyle=orthogonalEdgeStyle;rounded=0;orthogonalLoop=1;jettySize=auto;html=1;startArrow=classic;startFill=1;endArrow=none;endFill=0;" edge="1" parent="bFZ082iqQ71JPYvCp7bj-864" source="bFZ082iqQ71JPYvCp7bj-866">
          <mxGeometry relative="1" as="geometry">
            <mxPoint x="-29" y="40" as="targetPoint" />
          </mxGeometry>
        </mxCell>
        <mxCell id="bFZ082iqQ71JPYvCp7bj-907" value="&lt;b style=&quot;border-color: var(--border-color);&quot;&gt;R[0][2]&lt;/b&gt;" style="edgeLabel;html=1;align=center;verticalAlign=middle;resizable=0;points=[];" vertex="1" connectable="0" parent="bFZ082iqQ71JPYvCp7bj-904">
          <mxGeometry x="0.5009" y="-3" relative="1" as="geometry">
            <mxPoint as="offset" />
          </mxGeometry>
        </mxCell>
        <mxCell id="bFZ082iqQ71JPYvCp7bj-866" value="&lt;b&gt;&lt;font style=&quot;font-size: 19px;&quot;&gt;Cell 3&lt;/font&gt;&lt;/b&gt;" style="rounded=0;whiteSpace=wrap;html=1;strokeWidth=2;" vertex="1" parent="bFZ082iqQ71JPYvCp7bj-864">
          <mxGeometry x="18" width="80" height="80" as="geometry" />
        </mxCell>
        <mxCell id="bFZ082iqQ71JPYvCp7bj-867" value="&lt;font style=&quot;font-size: 8px;&quot;&gt;Cout&lt;/font&gt;" style="text;html=1;strokeColor=none;fillColor=none;align=center;verticalAlign=middle;whiteSpace=wrap;rounded=0;movable=0;resizable=0;rotatable=0;deletable=0;editable=0;locked=1;connectable=0;" vertex="1" parent="bFZ082iqQ71JPYvCp7bj-864">
          <mxGeometry x="20" y="48" width="20" height="30" as="geometry" />
        </mxCell>
        <mxCell id="bFZ082iqQ71JPYvCp7bj-868" value="&lt;font style=&quot;font-size: 8px;&quot;&gt;Cin&lt;/font&gt;" style="text;html=1;strokeColor=none;fillColor=none;align=center;verticalAlign=middle;whiteSpace=wrap;rounded=0;movable=0;resizable=0;rotatable=0;deletable=0;editable=0;locked=1;connectable=0;" vertex="1" parent="bFZ082iqQ71JPYvCp7bj-864">
          <mxGeometry x="68" y="48" width="33" height="30" as="geometry" />
        </mxCell>
        <mxCell id="bFZ082iqQ71JPYvCp7bj-870" value="" style="group" vertex="1" connectable="0" parent="1">
          <mxGeometry x="1609" y="1120" width="117" height="80" as="geometry" />
        </mxCell>
        <mxCell id="bFZ082iqQ71JPYvCp7bj-871" style="edgeStyle=orthogonalEdgeStyle;rounded=0;orthogonalLoop=1;jettySize=auto;html=1;" edge="1" parent="bFZ082iqQ71JPYvCp7bj-870" source="bFZ082iqQ71JPYvCp7bj-873">
          <mxGeometry relative="1" as="geometry">
            <mxPoint x="58" y="270" as="targetPoint" />
          </mxGeometry>
        </mxCell>
        <mxCell id="bFZ082iqQ71JPYvCp7bj-903" style="edgeStyle=orthogonalEdgeStyle;rounded=0;orthogonalLoop=1;jettySize=auto;html=1;startArrow=classic;startFill=1;endArrow=none;endFill=0;" edge="1" parent="bFZ082iqQ71JPYvCp7bj-870" source="bFZ082iqQ71JPYvCp7bj-873">
          <mxGeometry relative="1" as="geometry">
            <mxPoint x="-29" y="40" as="targetPoint" />
          </mxGeometry>
        </mxCell>
        <mxCell id="bFZ082iqQ71JPYvCp7bj-906" value="&lt;b style=&quot;border-color: var(--border-color);&quot;&gt;R[0][2]&lt;/b&gt;" style="edgeLabel;html=1;align=center;verticalAlign=middle;resizable=0;points=[];" vertex="1" connectable="0" parent="bFZ082iqQ71JPYvCp7bj-903">
          <mxGeometry x="0.3139" y="-3" relative="1" as="geometry">
            <mxPoint as="offset" />
          </mxGeometry>
        </mxCell>
        <mxCell id="bFZ082iqQ71JPYvCp7bj-873" value="&lt;b&gt;&lt;font style=&quot;font-size: 19px;&quot;&gt;Cell 3&lt;/font&gt;&lt;/b&gt;" style="rounded=0;whiteSpace=wrap;html=1;strokeWidth=2;" vertex="1" parent="bFZ082iqQ71JPYvCp7bj-870">
          <mxGeometry x="18" width="80" height="80" as="geometry" />
        </mxCell>
        <mxCell id="bFZ082iqQ71JPYvCp7bj-874" value="&lt;font style=&quot;font-size: 8px;&quot;&gt;Cout&lt;/font&gt;" style="text;html=1;strokeColor=none;fillColor=none;align=center;verticalAlign=middle;whiteSpace=wrap;rounded=0;movable=0;resizable=0;rotatable=0;deletable=0;editable=0;locked=1;connectable=0;" vertex="1" parent="bFZ082iqQ71JPYvCp7bj-870">
          <mxGeometry x="20" y="48" width="20" height="30" as="geometry" />
        </mxCell>
        <mxCell id="bFZ082iqQ71JPYvCp7bj-875" value="&lt;font style=&quot;font-size: 8px;&quot;&gt;Cin&lt;/font&gt;" style="text;html=1;strokeColor=none;fillColor=none;align=center;verticalAlign=middle;whiteSpace=wrap;rounded=0;movable=0;resizable=0;rotatable=0;deletable=0;editable=0;locked=1;connectable=0;" vertex="1" parent="bFZ082iqQ71JPYvCp7bj-870">
          <mxGeometry x="68" y="48" width="33" height="30" as="geometry" />
        </mxCell>
        <mxCell id="bFZ082iqQ71JPYvCp7bj-876" value="" style="group" vertex="1" connectable="0" parent="1">
          <mxGeometry x="1429" y="1120" width="117" height="80" as="geometry" />
        </mxCell>
        <mxCell id="bFZ082iqQ71JPYvCp7bj-902" style="edgeStyle=orthogonalEdgeStyle;rounded=0;orthogonalLoop=1;jettySize=auto;html=1;startArrow=classic;startFill=1;endArrow=none;endFill=0;" edge="1" parent="bFZ082iqQ71JPYvCp7bj-876" source="bFZ082iqQ71JPYvCp7bj-879">
          <mxGeometry relative="1" as="geometry">
            <mxPoint x="-29" y="40" as="targetPoint" />
          </mxGeometry>
        </mxCell>
        <mxCell id="bFZ082iqQ71JPYvCp7bj-905" value="&lt;b style=&quot;border-color: var(--border-color);&quot;&gt;R[0][2]&lt;/b&gt;" style="edgeLabel;html=1;align=center;verticalAlign=middle;resizable=0;points=[];" vertex="1" connectable="0" parent="bFZ082iqQ71JPYvCp7bj-902">
          <mxGeometry x="0.5619" y="-2" relative="1" as="geometry">
            <mxPoint as="offset" />
          </mxGeometry>
        </mxCell>
        <mxCell id="bFZ082iqQ71JPYvCp7bj-918" style="edgeStyle=orthogonalEdgeStyle;rounded=0;orthogonalLoop=1;jettySize=auto;html=1;exitX=0.5;exitY=1;exitDx=0;exitDy=0;" edge="1" parent="bFZ082iqQ71JPYvCp7bj-876" source="bFZ082iqQ71JPYvCp7bj-879">
          <mxGeometry relative="1" as="geometry">
            <mxPoint x="191" y="270" as="targetPoint" />
            <Array as="points">
              <mxPoint x="58" y="170" />
              <mxPoint x="191" y="170" />
              <mxPoint x="191" y="270" />
            </Array>
          </mxGeometry>
        </mxCell>
        <mxCell id="bFZ082iqQ71JPYvCp7bj-879" value="&lt;b&gt;&lt;font style=&quot;font-size: 19px;&quot;&gt;Cell 3&lt;/font&gt;&lt;/b&gt;" style="rounded=0;whiteSpace=wrap;html=1;strokeWidth=2;" vertex="1" parent="bFZ082iqQ71JPYvCp7bj-876">
          <mxGeometry x="18" width="80" height="80" as="geometry" />
        </mxCell>
        <mxCell id="bFZ082iqQ71JPYvCp7bj-880" value="&lt;font style=&quot;font-size: 8px;&quot;&gt;Cout&lt;/font&gt;" style="text;html=1;strokeColor=none;fillColor=none;align=center;verticalAlign=middle;whiteSpace=wrap;rounded=0;movable=0;resizable=0;rotatable=0;deletable=0;editable=0;locked=1;connectable=0;" vertex="1" parent="bFZ082iqQ71JPYvCp7bj-876">
          <mxGeometry x="20" y="48" width="20" height="30" as="geometry" />
        </mxCell>
        <mxCell id="bFZ082iqQ71JPYvCp7bj-881" value="&lt;font style=&quot;font-size: 8px;&quot;&gt;Cin&lt;/font&gt;" style="text;html=1;strokeColor=none;fillColor=none;align=center;verticalAlign=middle;whiteSpace=wrap;rounded=0;movable=0;resizable=0;rotatable=0;deletable=0;editable=0;locked=1;connectable=0;" vertex="1" parent="bFZ082iqQ71JPYvCp7bj-876">
          <mxGeometry x="68" y="48" width="33" height="30" as="geometry" />
        </mxCell>
        <mxCell id="bFZ082iqQ71JPYvCp7bj-882" style="edgeStyle=orthogonalEdgeStyle;rounded=0;orthogonalLoop=1;jettySize=auto;html=1;entryX=0.5;entryY=0;entryDx=0;entryDy=0;" edge="1" parent="1" source="bFZ082iqQ71JPYvCp7bj-649" target="bFZ082iqQ71JPYvCp7bj-879">
          <mxGeometry relative="1" as="geometry" />
        </mxCell>
        <mxCell id="bFZ082iqQ71JPYvCp7bj-898" value="&lt;b&gt;R[0][2]&lt;/b&gt;" style="edgeLabel;html=1;align=center;verticalAlign=middle;resizable=0;points=[];" vertex="1" connectable="0" parent="bFZ082iqQ71JPYvCp7bj-882">
          <mxGeometry x="-0.4938" relative="1" as="geometry">
            <mxPoint x="-1" y="10" as="offset" />
          </mxGeometry>
        </mxCell>
        <mxCell id="bFZ082iqQ71JPYvCp7bj-883" style="edgeStyle=orthogonalEdgeStyle;rounded=0;orthogonalLoop=1;jettySize=auto;html=1;entryX=1;entryY=0.5;entryDx=0;entryDy=0;" edge="1" parent="1">
          <mxGeometry relative="1" as="geometry">
            <mxPoint x="1627" y="1185" as="sourcePoint" />
            <mxPoint x="1526.9999999999998" y="1185" as="targetPoint" />
          </mxGeometry>
        </mxCell>
        <mxCell id="bFZ082iqQ71JPYvCp7bj-884" style="edgeStyle=orthogonalEdgeStyle;rounded=0;orthogonalLoop=1;jettySize=auto;html=1;entryX=1;entryY=0.5;entryDx=0;entryDy=0;" edge="1" parent="1">
          <mxGeometry relative="1" as="geometry">
            <mxPoint x="1807" y="1184" as="sourcePoint" />
            <mxPoint x="1707" y="1184" as="targetPoint" />
          </mxGeometry>
        </mxCell>
        <mxCell id="bFZ082iqQ71JPYvCp7bj-885" style="rounded=0;orthogonalLoop=1;jettySize=auto;html=1;exitX=0;exitY=0;exitDx=0;exitDy=0;startArrow=classic;startFill=1;endArrow=none;endFill=0;" edge="1" parent="1" source="bFZ082iqQ71JPYvCp7bj-866">
          <mxGeometry relative="1" as="geometry">
            <mxPoint x="1767" y="1070" as="targetPoint" />
            <mxPoint x="1817" y="1003" as="sourcePoint" />
          </mxGeometry>
        </mxCell>
        <mxCell id="bFZ082iqQ71JPYvCp7bj-886" value="&lt;b style=&quot;font-size: 15px;&quot;&gt;&lt;font style=&quot;font-size: 15px;&quot;&gt;D0&lt;/font&gt;&lt;/b&gt;" style="edgeLabel;html=1;align=center;verticalAlign=middle;resizable=0;points=[];fontSize=15;" vertex="1" connectable="0" parent="bFZ082iqQ71JPYvCp7bj-885">
          <mxGeometry x="-0.0533" y="1" relative="1" as="geometry">
            <mxPoint x="-4" y="-5" as="offset" />
          </mxGeometry>
        </mxCell>
        <mxCell id="bFZ082iqQ71JPYvCp7bj-887" style="rounded=0;orthogonalLoop=1;jettySize=auto;html=1;exitX=0;exitY=0;exitDx=0;exitDy=0;startArrow=classic;startFill=1;endArrow=none;endFill=0;" edge="1" parent="1" source="bFZ082iqQ71JPYvCp7bj-873">
          <mxGeometry relative="1" as="geometry">
            <mxPoint x="1577" y="1070" as="targetPoint" />
            <mxPoint x="1637" y="1003" as="sourcePoint" />
          </mxGeometry>
        </mxCell>
        <mxCell id="bFZ082iqQ71JPYvCp7bj-888" value="&lt;b style=&quot;font-size: 15px;&quot;&gt;&lt;font style=&quot;font-size: 15px;&quot;&gt;D1&lt;/font&gt;&lt;/b&gt;" style="edgeLabel;html=1;align=center;verticalAlign=middle;resizable=0;points=[];fontSize=15;" vertex="1" connectable="0" parent="bFZ082iqQ71JPYvCp7bj-887">
          <mxGeometry x="-0.0533" y="1" relative="1" as="geometry">
            <mxPoint x="-15" y="-17" as="offset" />
          </mxGeometry>
        </mxCell>
        <mxCell id="bFZ082iqQ71JPYvCp7bj-889" style="rounded=0;orthogonalLoop=1;jettySize=auto;html=1;exitX=0;exitY=0;exitDx=0;exitDy=0;startArrow=classic;startFill=1;endArrow=none;endFill=0;" edge="1" parent="1" source="bFZ082iqQ71JPYvCp7bj-879">
          <mxGeometry relative="1" as="geometry">
            <mxPoint x="1397" y="1070" as="targetPoint" />
            <mxPoint x="1457" y="1003" as="sourcePoint" />
          </mxGeometry>
        </mxCell>
        <mxCell id="bFZ082iqQ71JPYvCp7bj-890" value="&lt;b style=&quot;font-size: 15px;&quot;&gt;&lt;font style=&quot;font-size: 15px;&quot;&gt;D2&lt;/font&gt;&lt;/b&gt;" style="edgeLabel;html=1;align=center;verticalAlign=middle;resizable=0;points=[];fontSize=15;" vertex="1" connectable="0" parent="bFZ082iqQ71JPYvCp7bj-889">
          <mxGeometry x="-0.0533" y="1" relative="1" as="geometry">
            <mxPoint x="-4" y="-5" as="offset" />
          </mxGeometry>
        </mxCell>
        <mxCell id="bFZ082iqQ71JPYvCp7bj-891" value="&lt;b&gt;&lt;font style=&quot;font-size: 15px;&quot;&gt;&#39;0&#39;&lt;/font&gt;&lt;/b&gt;" style="text;html=1;strokeColor=none;fillColor=none;align=center;verticalAlign=middle;whiteSpace=wrap;rounded=0;" vertex="1" parent="1">
          <mxGeometry x="1931" y="1175" width="39.5" height="20" as="geometry" />
        </mxCell>
        <mxCell id="bFZ082iqQ71JPYvCp7bj-920" value="&lt;b style=&quot;font-size: 27px;&quot;&gt;&lt;font style=&quot;font-size: 27px;&quot;&gt;Result[5:0]&lt;/font&gt;&lt;/b&gt;" style="text;html=1;strokeColor=none;fillColor=none;align=center;verticalAlign=middle;whiteSpace=wrap;rounded=0;fontSize=27;" vertex="1" parent="1">
          <mxGeometry x="340" y="1390" width="170" height="40" as="geometry" />
        </mxCell>
        <mxCell id="bFZ082iqQ71JPYvCp7bj-922" value="&lt;b style=&quot;font-size: 27px;&quot;&gt;&lt;font style=&quot;font-size: 27px;&quot;&gt;Remainder[2:0]&lt;/font&gt;&lt;/b&gt;" style="text;html=1;strokeColor=none;fillColor=none;align=center;verticalAlign=middle;whiteSpace=wrap;rounded=0;fontSize=27;" vertex="1" parent="1">
          <mxGeometry x="1582.5" y="1390" width="170" height="40" as="geometry" />
        </mxCell>
        <mxCell id="bFZ082iqQ71JPYvCp7bj-927" value="&lt;b&gt;&lt;font style=&quot;font-size: 30px;&quot;&gt;A[5:0]&lt;/font&gt;&lt;/b&gt;" style="text;html=1;strokeColor=none;fillColor=none;align=center;verticalAlign=middle;whiteSpace=wrap;rounded=0;" vertex="1" parent="1">
          <mxGeometry x="1720" y="30" width="60" height="30" as="geometry" />
        </mxCell>
      </root>
    </mxGraphModel>
  </diagram>
</mxfile>
